<svg width="90" height="90" viewBox="0 0 90 90" fill="none" xmlns="http://www.w3.org/2000/svg">
<g clip-path="url(#clip0_124_564)">
<path d="M17.5781 90C16.2773 89.6133 15.0293 89.1563 14.0273 88.1895C12.7441 86.9414 12.0762 85.4297 11.9707 83.6719C11.9531 83.2852 11.9531 82.916 11.9531 82.5293C11.9531 57.6914 11.9531 32.8535 11.9531 8.01562C11.9531 3.30469 13.1836 1.54688 17.5605 0C30.2168 0 42.873 0 55.5293 0C56.9004 1.35352 58.2715 2.70703 59.6426 4.06055C65.4785 9.89648 71.3145 15.75 77.1855 21.5684C77.7656 22.1484 78.0469 22.7461 78.0469 23.5723C78.0293 32.1855 78.0293 40.7988 78.0293 49.4121C78.0293 49.7285 78.0469 50.0625 77.959 50.3613C77.7656 51.0293 77.2734 51.3809 76.5703 51.3105C75.9023 51.2402 75.5156 50.8359 75.4102 50.1855C75.375 49.9043 75.3926 49.6055 75.3926 49.3066C75.3926 41.3438 75.3926 33.3633 75.3926 25.4004C75.3926 25.0488 75.3926 24.7148 75.3926 24.2578C74.9883 24.2578 74.6895 24.2578 74.373 24.2578C69.8027 24.2578 65.2324 24.2578 60.6621 24.2578C56.5313 24.2578 53.7715 21.5156 53.7363 17.4023C53.7188 15.1523 53.7363 12.9023 53.7363 10.5293C53.3496 10.5293 53.0508 10.5293 52.7344 10.5293C43.1191 10.5293 33.5215 10.5293 23.9062 10.5293C22.7461 10.5293 22.7461 10.5293 22.7461 11.7246C22.7461 13.3066 22.7461 14.8887 22.7461 16.4707C22.7461 17.8418 22.7461 17.8418 24.082 17.8418C32.168 17.8418 40.2539 17.8418 48.3398 17.8418C48.6914 17.8418 49.043 17.8242 49.3945 17.8945C50.0625 18.0176 50.4141 18.4395 50.4492 19.1074C50.4668 19.7754 50.1328 20.2324 49.4824 20.3906C49.1836 20.4609 48.8496 20.4785 48.5156 20.4785C40.2891 20.4785 32.0449 20.4785 23.8184 20.4785C21.252 20.4785 20.1094 19.3184 20.1094 16.7871C20.1094 14.9941 20.1094 13.2187 20.1094 11.4258C20.127 9.10547 21.3223 7.91016 23.625 7.91016C33.2578 7.91016 42.9082 7.91016 52.541 7.91016C52.8926 7.91016 53.2441 7.91016 53.666 7.91016C53.666 6.15234 53.666 4.44727 53.666 2.63672C53.332 2.63672 53.0156 2.63672 52.7168 2.63672C41.502 2.63672 30.2695 2.63672 19.0547 2.63672C16.1895 2.63672 14.6074 4.21875 14.6074 7.10156C14.6074 32.3613 14.6074 57.6035 14.6074 82.8633C14.6074 85.7988 16.1719 87.3633 19.1074 87.3633C36.3867 87.3633 53.6836 87.3633 70.9629 87.3633C73.8281 87.3633 75.4102 85.7813 75.4102 82.8984C75.4102 74.25 75.4102 65.6191 75.4102 56.9707C75.4102 56.6719 75.3926 56.3906 75.4277 56.0918C75.498 55.3711 75.9375 54.9668 76.623 54.8965C77.3262 54.8437 77.8008 55.2129 77.9941 55.8984C78.0645 56.1797 78.0645 56.4785 78.0645 56.7773C78.0645 65.5137 78.0645 74.2324 78.0645 82.9688C78.0645 86.5898 76.2012 88.9805 72.6855 89.8945C72.5977 89.9121 72.5273 89.9824 72.457 90.0176C54.1406 90 35.8594 90 17.5781 90ZM56.4082 4.83398C56.4082 9.26367 56.3555 13.7461 56.4434 18.2109C56.4785 20.1445 58.2715 21.6387 60.3281 21.6387C64.4766 21.6562 68.6426 21.6387 72.791 21.6387C72.9492 21.6387 73.125 21.6211 73.2129 21.6035C67.623 16.0313 62.0332 10.4414 56.4082 4.83398Z" fill="white"/>
<path d="M27.4219 41.3435C25.8926 41.3435 24.3809 41.3611 22.8516 41.3435C21.2168 41.326 20.1621 40.3767 20.1445 38.7596C20.0918 35.6307 20.0918 32.5017 20.1445 29.3728C20.1797 27.7556 21.2168 26.7889 22.8516 26.7713C25.8926 26.7537 28.9336 26.7361 31.9922 26.7713C33.6621 26.7889 34.6816 27.8084 34.6992 29.4607C34.7344 32.5369 34.7344 35.6131 34.6992 38.6717C34.6816 40.3416 33.6621 41.326 31.9922 41.3435C30.4629 41.3611 28.9336 41.3435 27.4219 41.3435ZM32.0098 38.6717C32.0098 35.5428 32.0098 32.5193 32.0098 29.4431C28.916 29.4431 25.8926 29.4431 22.834 29.4431C22.834 32.5545 22.834 35.5955 22.834 38.6717C25.9277 38.6717 28.9336 38.6717 32.0098 38.6717Z" fill="white"/>
<path d="M27.3867 61.207C25.8574 61.207 24.3457 61.2246 22.8164 61.207C21.2344 61.1895 20.1797 60.2578 20.1445 58.6758C20.0918 55.5117 20.0918 52.3477 20.1445 49.2012C20.1797 47.6191 21.2168 46.6523 22.7988 46.6348C25.875 46.5996 28.9512 46.5996 32.0273 46.6348C33.6797 46.6523 34.6992 47.6895 34.6992 49.3594C34.7168 52.4004 34.7168 55.4414 34.6992 58.5C34.6816 60.2227 33.6797 61.207 31.9394 61.2246C30.4277 61.207 28.8984 61.207 27.3867 61.207ZM32.0273 49.3066C28.9512 49.3066 25.9102 49.3066 22.834 49.3066C22.834 52.4004 22.834 55.4414 22.834 58.5176C25.9277 58.5176 28.9687 58.5176 32.0273 58.5176C32.0273 55.4238 32.0273 52.3828 32.0273 49.3066Z" fill="white"/>
<path d="M27.4395 81.0703C25.9102 81.0703 24.3984 81.0879 22.8691 81.0703C21.1816 81.0528 20.1445 80.1035 20.127 78.4336C20.0742 75.3399 20.0742 72.2285 20.127 69.1348C20.1445 67.5176 21.1816 66.5156 22.8164 66.5156C25.8926 66.4805 28.9688 66.4805 32.0449 66.5156C33.6621 66.5332 34.6816 67.5527 34.6992 69.1699C34.7344 72.2637 34.7344 75.375 34.6992 78.4688C34.6816 80.0859 33.6445 81.0528 32.0098 81.0703C30.498 81.0879 28.9688 81.0703 27.4395 81.0703ZM32.0273 69.1875C28.8984 69.1875 25.8574 69.1875 22.7988 69.1875C22.7988 72.2813 22.7988 75.3223 22.7988 78.3633C25.9102 78.3633 28.9512 78.3633 32.0273 78.3633C32.0273 75.2695 32.0273 72.2461 32.0273 69.1875Z" fill="white"/>
<path d="M54.5801 29.3906C50.3965 29.3906 46.1954 29.3906 42.0118 29.3906C41.713 29.3906 41.4141 29.4082 41.1329 29.373C40.4649 29.2851 40.0782 28.8808 40.0079 28.2129C39.9376 27.5097 40.2891 27.0175 40.9571 26.8418C41.2559 26.7539 41.5899 26.7715 41.9063 26.7715C50.3438 26.7715 58.7813 26.7715 67.2188 26.7715C67.5352 26.7715 67.8692 26.7715 68.168 26.8418C68.8536 27.0351 69.1876 27.5273 69.1173 28.2304C69.0469 28.8984 68.6602 29.3027 67.9922 29.373C67.711 29.4082 67.4122 29.3906 67.1133 29.3906C62.9649 29.3906 58.7813 29.3906 54.5801 29.3906Z" fill="white"/>
<path d="M54.4921 34.6641C50.3261 34.6641 46.1776 34.6641 42.0116 34.6641C41.7128 34.6641 41.4139 34.6816 41.1327 34.6465C40.4647 34.5586 40.078 34.1543 40.0077 33.4863C39.955 32.8184 40.2362 32.3438 40.8866 32.1328C41.2206 32.0273 41.5721 32.0273 41.9237 32.0273C50.3612 32.0273 58.7987 32.0273 67.2362 32.0273C67.6054 32.0273 68.0975 31.9746 68.3261 32.1855C68.6952 32.5195 69.0468 33.0293 69.0995 33.5039C69.1698 34.1016 68.7128 34.5234 68.0975 34.6289C67.8163 34.6816 67.5175 34.6641 67.2186 34.6641C62.9999 34.6641 58.746 34.6641 54.4921 34.6641Z" fill="white"/>
<path d="M54.4921 49.2539C50.3261 49.2539 46.1776 49.2539 42.0116 49.2539C41.7128 49.2539 41.4139 49.2715 41.1327 49.2363C40.4647 49.1484 40.078 48.7441 40.0077 48.0762C39.955 47.4082 40.2362 46.916 40.8866 46.7227C41.2206 46.6172 41.5721 46.6172 41.9237 46.6172C50.3612 46.6172 58.7987 46.6172 67.2362 46.6172C67.6054 46.6172 68.0975 46.5645 68.3261 46.7754C68.6952 47.1094 69.0468 47.6191 69.0995 48.0938C69.1698 48.6914 68.7128 49.1133 68.0975 49.2188C67.8163 49.2715 67.5175 49.2539 67.2186 49.2539C62.9999 49.2539 58.746 49.2539 54.4921 49.2539Z" fill="white"/>
<path d="M54.5977 54.5274C50.3789 54.5274 46.1602 54.5274 41.9414 54.5274C41.6426 54.5274 41.2735 54.6152 41.0801 54.4746C40.6758 54.1758 40.2188 53.7891 40.0606 53.3496C39.8672 52.7871 40.2188 52.2598 40.8164 52.0488C41.168 51.9258 41.5547 51.9082 41.9414 51.9082C50.3789 51.9082 58.8164 51.9082 67.2539 51.9082C67.6055 51.9082 67.9571 51.9082 68.2911 52.0137C68.9414 52.207 69.2403 52.6992 69.17 53.3672C69.0996 54.0352 68.7129 54.4395 68.045 54.5274C67.7637 54.5625 67.4649 54.5449 67.1661 54.5449C62.9649 54.5274 58.7813 54.5274 54.5977 54.5274Z" fill="white"/>
<path d="M54.5801 69.1172C50.3965 69.1172 46.1954 69.1172 42.0118 69.1172C41.713 69.1172 41.4141 69.1348 41.1329 69.0996C40.4649 69.0117 40.0782 68.6074 40.0079 67.9395C39.9376 67.2363 40.2891 66.7441 40.9571 66.5684C41.2559 66.4805 41.5899 66.498 41.9063 66.498C50.3438 66.498 58.7813 66.498 67.2188 66.498C67.5879 66.498 68.0801 66.4453 68.3087 66.6563C68.6778 66.9902 69.0294 67.5 69.0821 67.957C69.17 68.5547 68.6954 68.9766 68.0801 69.082C67.7989 69.1348 67.5001 69.1172 67.2012 69.1172C63.0176 69.1172 58.7989 69.1172 54.5801 69.1172Z" fill="white"/>
<path d="M54.492 74.3906C50.326 74.3906 46.1775 74.3906 42.0115 74.3906C41.7127 74.3906 41.4139 74.4082 41.1326 74.3731C40.4646 74.2852 40.0779 73.8809 40.0076 73.2129C39.9373 72.5449 40.2361 72.0527 40.8865 71.8594C41.2205 71.7539 41.5721 71.7539 41.9236 71.7539C50.3611 71.7539 58.7986 71.7539 67.2361 71.7539C67.6053 71.7539 68.0975 71.7012 68.326 71.9121C68.6951 72.2461 69.0467 72.7559 69.0994 73.2305C69.1697 73.8281 68.7127 74.25 68.0975 74.3555C67.8162 74.4082 67.5174 74.3906 67.2186 74.3906C62.9998 74.3906 58.7459 74.3906 54.492 74.3906Z" fill="white"/>
</g>
<defs>
<clipPath id="clip0_124_564">
<rect width="90" height="90" fill="white"/>
</clipPath>
</defs>
</svg>
