<svg width="100" height="100" viewBox="0 0 100 100" fill="none" xmlns="http://www.w3.org/2000/svg">
<path d="M99.9999 65.4297C98.9061 67.3633 97.9686 67.6758 95.8202 66.8164C94.453 66.2695 93.1054 65.7422 91.7382 65.2149C91.6796 65.1953 91.621 65.2149 91.5624 65.2344C90.4491 67.0117 89.3554 68.7695 88.2421 70.5078C88.0858 70.7617 87.9296 70.9961 87.7343 71.2305C87.1093 71.9336 86.2499 72.0508 85.5663 71.543C84.9218 71.0742 84.7069 70.2344 85.1561 69.4531C85.6054 68.6719 86.1913 67.9492 86.6405 67.168C87.4999 65.6836 88.3202 64.1602 89.16 62.6563C89.785 61.5235 90.4491 61.25 91.66 61.7188C93.2421 62.3242 94.785 62.9688 96.5233 63.6524C94.9804 56.5625 93.4569 49.6289 91.8944 42.5195C86.0741 46.6211 80.3124 50.6641 74.453 54.8047C76.2694 55.5274 77.9296 56.1914 79.5702 56.8555C81.328 57.5586 81.6014 58.4375 80.5663 60.0195C73.9257 70.1563 64.7264 76.6797 52.9296 79.375C44.6483 81.2695 36.4452 80.6641 28.4374 77.832C28.1053 77.7149 27.7928 77.5977 27.4608 77.5C27.4022 77.5977 27.3632 77.6953 27.3046 77.793C29.2967 79.0039 31.2108 80.3516 33.2811 81.4258C39.8632 84.8438 46.8944 86.3672 54.2968 85.9571C63.7108 85.4297 72.0116 82.1094 79.121 75.8985C79.6874 75.4102 80.2343 74.8828 80.8007 74.4141C81.6796 73.6719 82.5975 73.6524 83.2225 74.3555C83.8475 75.0391 83.7499 75.9766 82.9491 76.7774C78.2421 81.3672 72.8124 84.8633 66.5624 86.8945C52.1483 91.543 38.6522 89.6094 26.2108 80.8594C24.4335 79.6094 22.8514 78.1055 21.2303 76.6406C20.0194 75.5664 19.8631 74.2774 20.6249 73.1641C21.3866 72.0703 22.6561 71.7774 24.1014 72.5C28.0077 74.4922 32.0897 76.0156 36.4257 76.6406C50.1952 78.6719 62.1874 74.9414 72.246 65.293C74.0624 63.5547 75.5663 61.4844 77.3241 59.4336C75.4686 58.6914 73.8475 58.0664 72.246 57.3828C70.6639 56.7188 70.0389 55.1367 70.8397 53.8086C71.0936 53.3789 71.5038 53.0078 71.9139 52.7149C78.1249 48.3203 84.3554 43.9258 90.5858 39.5508C92.5389 38.1836 94.3944 38.9453 94.9022 41.2695C96.5233 48.6914 98.164 56.1328 99.785 63.5547C99.8241 63.7305 99.9218 63.9063 99.9999 64.082C99.9999 64.5313 99.9999 64.9805 99.9999 65.4297Z" fill="white"/>
<path d="M0 34.5703C1.09375 32.6367 2.03125 32.3242 4.17969 33.1836C5.54688 33.7305 6.89453 34.2578 8.26172 34.7851C8.32031 34.8047 8.37891 34.7851 8.47656 34.7656C9.375 33.3008 10.1953 31.7969 11.1719 30.3906C17.5391 21.0156 26.1523 14.668 37.207 12.0898C53.0078 8.41796 66.9336 12.2656 78.7891 23.3984C79.9609 24.5117 80.1562 25.7812 79.375 26.875C78.6133 27.9687 77.3438 28.2617 75.8984 27.5195C72.0312 25.5469 67.9883 24.0234 63.6719 23.3789C49.8828 21.3281 37.8516 25.0391 27.7734 34.707C25.957 36.4453 24.4531 38.5156 22.6758 40.5664C24.5117 41.3086 26.1523 41.9336 27.7539 42.6172C29.4336 43.3398 30.0195 45.0976 29.0234 46.4453C28.7891 46.7578 28.4961 47.0312 28.1836 47.2461C21.9141 51.6797 15.6445 56.0937 9.35547 60.5078C7.5 61.7969 5.64453 61.0351 5.13672 58.8476C4.88281 57.7148 4.62891 56.5625 4.39453 55.4101C4.14062 54.1992 4.55078 53.3594 5.46875 53.125C6.44531 52.8711 7.1875 53.4375 7.5 54.6875C7.71484 55.5664 7.91016 56.4453 8.125 57.4414C13.9453 53.3398 19.668 49.3164 25.5469 45.1758C23.75 44.4531 22.1094 43.7891 20.4492 43.125C18.6523 42.4023 18.3789 41.543 19.4531 39.9023C25.4102 30.7812 33.5547 24.5312 44.0039 21.3867C53.3984 18.5742 62.7539 18.9453 71.9727 22.2656C72.1484 22.3242 72.3242 22.3828 72.6172 22.2656C71.8555 21.7187 71.1133 21.1328 70.3125 20.625C62.3438 15.4297 53.5742 13.2422 44.1406 14.082C33.8672 15.0391 25.1367 19.3359 18.0078 26.875C15.1953 29.8437 12.9102 33.1836 11.0938 36.8555C10.1953 38.6914 9.6875 38.8476 7.77344 38.0664C6.38672 37.5195 5.01953 36.9531 3.47656 36.3476C4.00391 38.75 4.49219 40.9961 4.98047 43.2226C5.29297 44.707 5.66406 46.2109 5.89844 47.7148C6.03516 48.6133 5.48828 49.2969 4.6875 49.4336C3.84766 49.5898 3.16406 49.1992 2.85156 48.3398C2.77344 48.125 2.73438 47.9101 2.67578 47.6758C1.85547 43.9453 1.03516 40.1953 0.214844 36.4648C0.175781 36.289 0.078125 36.1133 0 35.9375C0 35.4883 0 35.0195 0 34.5703Z" fill="white"/>
</svg>
