<svg width="110" height="110" viewBox="0 0 110 110" fill="none" xmlns="http://www.w3.org/2000/svg">
<circle cx="55" cy="55" r="54" fill="white" stroke="#48CAE4" stroke-width="2"/>
<path d="M55.3701 72.1094C55.1338 72.1094 54.9297 72.1094 54.7148 72.1094C46.7441 72.1094 38.7842 72.1094 30.8135 72.1094C28.8691 72.1094 27.8594 71.1104 27.8594 69.1768C27.8594 61.0449 27.8594 52.9131 27.8701 44.792C27.8701 44.502 27.9883 44.1475 28.1709 43.9434C32.1025 39.7002 36.0557 35.4785 39.9873 31.2354C40.2559 30.9453 40.5137 30.8379 40.9111 30.8379C52.7813 30.8486 64.6514 30.8486 76.5215 30.8486C78.3906 30.8486 79.4219 31.8691 79.4219 33.7275C79.4219 43.9111 79.4219 54.1055 79.4326 64.2891C79.4326 64.6328 79.5186 64.9981 79.6797 65.2988C83.8691 73.2803 78.627 83.0879 69.6572 84.0439C62.5137 84.8066 56.165 79.6719 55.4453 72.5498C55.4346 72.4209 55.4023 72.2813 55.3701 72.1094ZM68.2285 60.0674C62.0732 60.0781 57.0674 65.1055 57.0781 71.2715C57.0889 77.4268 62.1162 82.4326 68.2715 82.4219C74.4268 82.4111 79.4326 77.3838 79.4219 71.2285C79.4111 65.0732 74.3838 60.0674 68.2285 60.0674ZM77.7031 62.4414C77.7031 62.1621 77.7031 61.9795 77.7031 61.7861C77.7031 52.4727 77.7031 43.1592 77.7031 33.8564C77.7031 32.793 77.4775 32.5674 76.4141 32.5674C64.9414 32.5674 53.458 32.5674 41.9854 32.5674C41.792 32.5674 41.5986 32.5674 41.3945 32.5674C40.5996 35.4463 39.8047 38.2822 38.999 41.1826C51.3633 41.1826 63.6523 41.1826 75.9736 41.1826C75.9736 41.4512 75.9736 41.6553 75.9736 41.8701C75.9736 48.0684 75.9736 54.2666 75.9844 60.4541C75.9844 60.6797 76.0596 60.959 76.1992 61.1094C76.6504 61.5606 77.1445 61.9473 77.7031 62.4414ZM55.585 68.6611C47.4746 68.6611 39.3965 68.6611 31.2539 68.6611C31.2539 60.3897 31.2539 52.1826 31.2539 43.9648C30.1582 44.3408 29.5566 45.2539 29.5566 46.4785C29.5566 54.0195 29.5566 61.5606 29.5566 69.0908C29.5566 70.1543 29.7822 70.3906 30.835 70.3906C38.8057 70.3906 46.7656 70.3906 54.7363 70.3906C54.9297 70.3906 55.123 70.3906 55.3701 70.3906C55.4453 69.8106 55.5205 69.2734 55.585 68.6611ZM58.8291 51.4951C58.8291 53.8047 58.8291 56.0605 58.8291 58.3057C61.1279 58.3057 63.3838 58.3057 65.6397 58.3057C65.6397 56.0176 65.6397 53.7617 65.6397 51.4951C63.3623 51.4951 61.1172 51.4951 58.8291 51.4951ZM48.4522 60.1104C46.1426 60.1104 43.8867 60.1104 41.6416 60.1104C41.6416 62.4092 41.6416 64.665 41.6416 66.9209C43.9297 66.9209 46.1855 66.9209 48.4522 66.9209C48.4522 64.6436 48.4522 62.3984 48.4522 60.1104ZM50.2246 49.7227C52.5234 49.7227 54.79 49.7227 57.0352 49.7227C57.0352 47.4238 57.0352 45.168 57.0352 42.9121C54.7471 42.9121 52.502 42.9121 50.2246 42.9121C50.2246 45.1895 50.2246 47.4346 50.2246 49.7227ZM65.6289 49.7334C65.6289 47.4346 65.6289 45.168 65.6289 42.9229C63.3301 42.9229 61.0742 42.9229 58.8184 42.9229C58.8184 45.2109 58.8184 47.4668 58.8184 49.7334C61.0957 49.7334 63.3408 49.7334 65.6289 49.7334ZM74.2441 42.9121C71.9453 42.9121 69.6787 42.9121 67.4336 42.9121C67.4336 45.2109 67.4336 47.4668 67.4336 49.7227C69.7217 49.7227 71.9668 49.7227 74.2441 49.7227C74.2441 47.4561 74.2441 45.2002 74.2441 42.9121ZM33.0479 60.0996C33.0479 62.3984 33.0479 64.665 33.0479 66.9102C35.3467 66.9102 37.6025 66.9102 39.8584 66.9102C39.8584 64.6221 39.8584 62.377 39.8584 60.0996C37.5811 60.0996 35.3359 60.0996 33.0479 60.0996ZM33.0371 58.3164C35.3359 58.3164 37.6025 58.3164 39.8477 58.3164C39.8477 56.0176 39.8477 53.7617 39.8477 51.5059C37.5596 51.5059 35.3145 51.5059 33.0371 51.5059C33.0371 53.7832 33.0371 56.0283 33.0371 58.3164ZM41.6416 51.4951C41.6416 53.7939 41.6416 56.0605 41.6416 58.3057C43.9404 58.3057 46.1963 58.3057 48.4522 58.3057C48.4522 56.0176 48.4522 53.7617 48.4522 51.4951C46.1748 51.4951 43.9297 51.4951 41.6416 51.4951ZM57.0352 58.3272C57.0352 56.0283 57.0352 53.7617 57.0352 51.5166C54.7363 51.5166 52.4805 51.5166 50.2246 51.5166C50.2246 53.8047 50.2246 56.0605 50.2246 58.3272C52.502 58.3272 54.7471 58.3272 57.0352 58.3272ZM67.4121 58.3809C69.8398 58.2412 72.085 58.7354 74.2334 59.8311C74.2334 57.0166 74.2334 54.2773 74.2334 51.5059C71.9453 51.5059 69.6895 51.5059 67.4121 51.5059C67.4121 53.7939 67.4121 56.0606 67.4121 58.3809ZM48.4522 42.9229C46.1533 42.9229 43.8867 42.9229 41.6416 42.9229C41.6416 45.2217 41.6416 47.4775 41.6416 49.7334C43.9297 49.7334 46.1748 49.7334 48.4522 49.7334C48.4522 47.4561 48.4522 45.2002 48.4522 42.9229ZM57.0674 60.1211C54.7256 60.1211 52.4697 60.1211 50.2246 60.1211C50.2246 62.4092 50.2246 64.6543 50.2246 66.9531C52.126 66.9531 53.9951 66.9531 55.8643 66.9531C55.9502 66.9531 56.1006 66.8994 56.1328 66.835C56.4551 66.1367 56.96 65.46 57.0244 64.7402C57.1641 63.2041 57.0674 61.668 57.0674 60.1211ZM39.8584 42.8799C39.6221 42.8799 39.4072 42.9014 39.2031 42.8799C38.6982 42.8047 38.4727 42.9873 38.3438 43.5137C38.0107 44.8994 37.5918 46.2744 37.1943 47.6387C37.1514 47.7891 37.0225 48.0146 36.915 48.0146C36.1953 48.0469 35.4648 48.0361 34.7773 48.0361C34.7236 47.1768 34.7451 46.3818 34.5947 45.6191C34.4336 44.8027 33.8643 44.2441 33.0371 43.9434C33.0371 45.9199 33.0371 47.832 33.0371 49.7227C35.3359 49.7227 37.5918 49.7227 39.8477 49.7227C39.8584 47.4238 39.8584 45.1787 39.8584 42.8799ZM38.9131 35.0703C38.8809 35.0596 38.8486 35.0381 38.8164 35.0273C36.668 37.3369 34.5088 39.6465 32.4355 41.8701C33.1982 42.2031 34.0146 42.4287 34.6484 42.8906C35.2822 43.3418 35.7334 44.0508 36.249 44.6309C37.1299 41.4941 38.0215 38.2822 38.9131 35.0703ZM58.8398 60.0889C58.8398 60.8838 58.8398 61.6357 58.8398 62.3447C59.7852 61.5928 60.7197 60.8408 61.6543 60.0889C60.7197 60.0889 59.7959 60.0889 58.8398 60.0889Z" fill="#48CAE4"/>
<path d="M67.3906 65.2559C67.9922 65.2559 68.5293 65.2559 69.1094 65.2559C69.1094 66.2979 69.1201 67.3076 69.0986 68.3281C69.0879 68.6611 69.1631 68.8545 69.4961 69.0264C70.5811 69.5957 71.0537 70.8096 70.6885 72.002C70.6026 72.292 70.6563 72.4531 70.8496 72.6465C71.5908 73.377 72.3213 74.1182 73.0518 74.8486C73.0625 74.8594 73.0625 74.8809 73.084 74.9238C72.6865 75.2783 72.2783 75.6436 71.8272 76.0625C71.1611 75.3965 70.4199 74.6553 69.6895 73.9033C69.4639 73.667 69.2813 73.6133 68.9483 73.71C67.6699 74.0967 66.3701 73.4522 65.8653 72.2383C65.3604 71.0137 65.8223 69.6602 67.0147 69.0264C67.3262 68.8652 67.3906 68.6826 67.3906 68.3604C67.3799 67.3291 67.3906 66.3193 67.3906 65.2559ZM68.2393 70.3906C67.7774 70.3906 67.3906 70.7881 67.3906 71.25C67.3906 71.7119 67.7881 72.0986 68.25 72.0986C68.7119 72.0986 69.0986 71.7012 69.0986 71.2393C69.0986 70.7773 68.7119 70.3906 68.2393 70.3906Z" fill="#48CAE4"/>
<path d="M69.0986 62.6562C69.0986 63.1182 68.7012 63.5156 68.2393 63.5049C67.7773 63.5049 67.3906 63.1074 67.3906 62.6455C67.3906 62.1729 67.7773 61.7969 68.25 61.7969C68.7119 61.7969 69.1094 62.1836 69.0986 62.6562Z" fill="#48CAE4"/>
<path d="M62.2451 66.083C61.7832 66.083 61.3857 65.707 61.3857 65.2344C61.3857 64.7725 61.7617 64.375 62.2344 64.375C62.6963 64.375 63.0938 64.751 63.0938 65.2236C63.0938 65.6855 62.707 66.083 62.2451 66.083Z" fill="#48CAE4"/>
<path d="M74.2656 66.083C73.8037 66.083 73.4062 65.6963 73.4062 65.2344C73.4062 64.7725 73.793 64.375 74.2549 64.375C74.7168 64.375 75.1143 64.7617 75.1143 65.2236C75.125 65.6963 74.7275 66.083 74.2656 66.083Z" fill="#48CAE4"/>
<path d="M59.6563 70.3906C60.1182 70.3906 60.5049 70.7881 60.5049 71.25C60.5049 71.7119 60.1074 72.0986 59.6455 72.0986C59.1836 72.0986 58.7969 71.7012 58.7969 71.2393C58.7969 70.7773 59.1943 70.3906 59.6563 70.3906Z" fill="#48CAE4"/>
<path d="M76.8437 72.0986C76.3818 72.0986 75.9844 71.7119 75.9844 71.25C75.9844 70.7773 76.3711 70.3906 76.833 70.3906C77.2949 70.3906 77.6924 70.7773 77.6924 71.2393C77.7031 71.7119 77.3164 72.0986 76.8437 72.0986Z" fill="#48CAE4"/>
<path d="M62.2772 76.4062C62.7392 76.4276 63.1151 76.8466 63.0937 77.3085C63.0722 77.7704 62.664 78.1464 62.1913 78.1249C61.7294 78.1034 61.3534 77.6845 61.3749 77.2226C61.3964 76.7606 61.8153 76.3847 62.2772 76.4062Z" fill="#48CAE4"/>
<path d="M74.2656 78.125C73.8037 78.125 73.4062 77.7383 73.4062 77.2764C73.4062 76.8145 73.793 76.417 74.2549 76.417C74.7168 76.417 75.1143 76.8037 75.1143 77.2656C75.125 77.7275 74.7383 78.1143 74.2656 78.125Z" fill="#48CAE4"/>
<path d="M68.2287 80.7033C67.7668 80.6926 67.3801 80.2951 67.3908 79.8225C67.4016 79.3498 67.799 78.9739 68.2717 78.9846C68.7336 78.9953 69.1203 79.3928 69.1096 79.8655C69.0881 80.3274 68.6907 80.7141 68.2287 80.7033Z" fill="#48CAE4"/>
<path d="M41.6309 39.4102C41.6309 37.6914 41.6309 36.0156 41.6309 34.3184C53.0713 34.3184 64.4902 34.3184 75.9414 34.3184C75.9414 36.0049 75.9414 37.6914 75.9414 39.4102C64.5225 39.4102 53.0928 39.4102 41.6309 39.4102ZM43.3496 37.6914C53.6729 37.6914 63.9531 37.6914 74.2227 37.6914C74.2227 37.1113 74.2227 36.5635 74.2227 36.0371C63.9102 36.0371 53.6406 36.0371 43.3496 36.0371C43.3496 36.585 43.3496 37.1113 43.3496 37.6914Z" fill="#48CAE4"/>
<path d="M72.7295 52.6123C73.2021 53.0527 73.5889 53.418 73.9541 53.7725C72.6113 55.1152 71.2793 56.4365 69.9902 57.7148C69.2705 56.9951 68.5186 56.2432 67.7451 55.4805C68.0889 55.1689 68.4971 54.8037 69.002 54.3311C69.249 54.6641 69.5498 55.0615 69.8721 55.4912C70.9033 54.4492 71.8164 53.5254 72.7295 52.6123Z" fill="#48CAE4"/>
<path d="M46.9697 43.9434C47.4209 44.416 47.7861 44.8135 48.1299 45.168C46.8193 46.4678 45.4873 47.7783 44.1982 49.0459C43.5107 48.3584 42.748 47.5957 41.9746 46.8223C42.2861 46.5215 42.6729 46.1455 43.1455 45.6836C43.4355 46.0703 43.7363 46.457 44.0908 46.9297C45.1221 45.8662 46.0352 44.9102 46.9697 43.9434Z" fill="#48CAE4"/>
<path d="M52.7598 66.3408C52.0293 65.6104 51.2881 64.8691 50.5146 64.1064C50.9014 63.7627 51.2988 63.3975 51.8037 62.9355C52.0615 63.2471 52.373 63.6338 52.7168 64.0635C53.7051 63.0537 54.6074 62.1191 55.542 61.1738C55.9824 61.6357 56.3584 62.0332 56.7236 62.4092C55.4131 63.6982 54.0918 65.0195 52.7598 66.3408Z" fill="#48CAE4"/>
</svg>
