<svg width="90" height="90" viewBox="0 0 90 90" fill="none" xmlns="http://www.w3.org/2000/svg">
<path d="M46.4238 68.9063C46.0371 68.9063 45.7031 68.9063 45.3516 68.9063C32.3086 68.9063 19.2832 68.9063 6.24023 68.9063C3.05859 68.9063 1.40625 67.2715 1.40625 64.1074C1.40625 50.8008 1.40625 37.4941 1.42383 24.2051C1.42383 23.7305 1.61719 23.1504 1.91602 22.8164C8.34961 15.873 14.8184 8.96484 21.252 2.02148C21.6914 1.54687 22.1133 1.37109 22.7637 1.37109C42.1875 1.38867 61.6113 1.38867 81.0352 1.38867C84.0937 1.38867 85.7812 3.05859 85.7812 6.09961C85.7812 22.7637 85.7813 39.4453 85.7988 56.1094C85.7988 56.6719 85.9395 57.2695 86.2031 57.7617C93.0586 70.8223 84.4805 86.8711 69.8027 88.4356C58.1133 89.6836 47.7246 81.2813 46.5469 69.627C46.5293 69.416 46.4766 69.1875 46.4238 68.9063ZM67.4648 49.2012C57.3926 49.2188 49.2012 57.4453 49.2188 67.5352C49.2363 77.6074 57.4629 85.7988 67.5352 85.7813C77.6074 85.7637 85.7988 77.5371 85.7812 67.4648C85.7637 57.3926 77.5371 49.2012 67.4648 49.2012ZM82.9688 53.0859C82.9688 52.6289 82.9688 52.3301 82.9688 52.0137C82.9688 36.7734 82.9688 21.5332 82.9688 6.31055C82.9688 4.57031 82.5996 4.20117 80.8594 4.20117C62.0859 4.20117 43.2949 4.20117 24.5215 4.20117C24.2051 4.20117 23.8887 4.20117 23.5547 4.20117C22.2539 8.91211 20.9531 13.5527 19.6348 18.2988C39.8672 18.2988 59.9766 18.2988 80.1387 18.2988C80.1387 18.7383 80.1387 19.0723 80.1387 19.4238C80.1387 29.5664 80.1387 39.709 80.1562 49.834C80.1562 50.2031 80.2793 50.6602 80.5078 50.9063C81.2461 51.6445 82.0547 52.2774 82.9688 53.0859ZM46.7754 63.2637C33.5039 63.2637 20.2852 63.2637 6.96094 63.2637C6.96094 49.7285 6.96094 36.2988 6.96094 22.8516C5.16797 23.4668 4.18359 24.9609 4.18359 26.9648C4.18359 39.3047 4.18359 51.6445 4.18359 63.9668C4.18359 65.707 4.55273 66.0938 6.27539 66.0938C19.3184 66.0938 32.3438 66.0938 45.3867 66.0938C45.7031 66.0938 46.0195 66.0938 46.4238 66.0938C46.5469 65.1445 46.6699 64.2656 46.7754 63.2637ZM52.084 35.1738C52.084 38.9531 52.084 42.6445 52.084 46.3184C55.8457 46.3184 59.5371 46.3184 63.2285 46.3184C63.2285 42.5742 63.2285 38.8828 63.2285 35.1738C59.502 35.1738 55.8281 35.1738 52.084 35.1738ZM35.1035 49.2715C31.3242 49.2715 27.6328 49.2715 23.959 49.2715C23.959 53.0332 23.959 56.7246 23.959 60.416C27.7031 60.416 31.3945 60.416 35.1035 60.416C35.1035 56.6895 35.1035 53.0156 35.1035 49.2715ZM38.0039 32.2734C41.7656 32.2734 45.4746 32.2734 49.1484 32.2734C49.1484 28.5117 49.1484 24.8203 49.1484 21.1289C45.4043 21.1289 41.7305 21.1289 38.0039 21.1289C38.0039 24.8555 38.0039 28.5293 38.0039 32.2734ZM63.2109 32.291C63.2109 28.5293 63.2109 24.8203 63.2109 21.1465C59.4492 21.1465 55.7578 21.1465 52.0664 21.1465C52.0664 24.8906 52.0664 28.582 52.0664 32.291C55.793 32.291 59.4668 32.291 63.2109 32.291ZM77.3086 21.1289C73.5469 21.1289 69.8379 21.1289 66.1641 21.1289C66.1641 24.8906 66.1641 28.582 66.1641 32.2734C69.9082 32.2734 73.582 32.2734 77.3086 32.2734C77.3086 28.5645 77.3086 24.873 77.3086 21.1289ZM9.89648 49.2539C9.89648 53.0156 9.89648 56.7246 9.89648 60.3984C13.6582 60.3984 17.3496 60.3984 21.041 60.3984C21.041 56.6543 21.041 52.9805 21.041 49.2539C17.3145 49.2539 13.6406 49.2539 9.89648 49.2539ZM9.87891 46.3359C13.6406 46.3359 17.3496 46.3359 21.0234 46.3359C21.0234 42.5742 21.0234 38.8828 21.0234 35.1914C17.2793 35.1914 13.6055 35.1914 9.87891 35.1914C9.87891 38.918 9.87891 42.5918 9.87891 46.3359ZM23.959 35.1738C23.959 38.9356 23.959 42.6445 23.959 46.3184C27.7207 46.3184 31.4121 46.3184 35.1035 46.3184C35.1035 42.5742 35.1035 38.8828 35.1035 35.1738C31.377 35.1738 27.7031 35.1738 23.959 35.1738ZM49.1484 46.3535C49.1484 42.5918 49.1484 38.8828 49.1484 35.209C45.3867 35.209 41.6953 35.209 38.0039 35.209C38.0039 38.9531 38.0039 42.6445 38.0039 46.3535C41.7305 46.3535 45.4043 46.3535 49.1484 46.3535ZM66.1289 46.4414C70.1016 46.2129 73.7754 47.0215 77.291 48.8145C77.291 44.209 77.291 39.7266 77.291 35.1914C73.5469 35.1914 69.8555 35.1914 66.1289 35.1914C66.1289 38.9355 66.1289 42.6445 66.1289 46.4414ZM35.1035 21.1465C31.3418 21.1465 27.6328 21.1465 23.959 21.1465C23.959 24.9082 23.959 28.5996 23.959 32.291C27.7031 32.291 31.377 32.291 35.1035 32.291C35.1035 28.5645 35.1035 24.873 35.1035 21.1465ZM49.2012 49.2891C45.3691 49.2891 41.6777 49.2891 38.0039 49.2891C38.0039 53.0332 38.0039 56.707 38.0039 60.4688C41.1152 60.4688 44.1738 60.4688 47.2324 60.4688C47.373 60.4688 47.6191 60.3809 47.6719 60.2754C48.1992 59.1328 49.0254 58.0254 49.1309 56.8477C49.3594 54.334 49.2012 51.8203 49.2012 49.2891ZM21.041 21.0762C20.6543 21.0762 20.3027 21.1113 19.9687 21.0762C19.1426 20.9531 18.7734 21.252 18.5625 22.1133C18.0176 24.3809 17.332 26.6309 16.6816 28.8633C16.6113 29.1094 16.4004 29.4785 16.2246 29.4785C15.0469 29.5313 13.8516 29.5137 12.7266 29.5137C12.6387 28.1074 12.6738 26.8066 12.4277 25.5586C12.1641 24.2227 11.2324 23.3086 9.87891 22.8164C9.87891 26.0508 9.87891 29.1797 9.87891 32.2734C13.6406 32.2734 17.332 32.2734 21.0234 32.2734C21.041 28.5117 21.041 24.8379 21.041 21.0762ZM19.4941 8.29688C19.4414 8.2793 19.3887 8.24414 19.3359 8.22656C15.8203 12.0059 12.2871 15.7852 8.89453 19.4238C10.1426 19.9688 11.4785 20.3379 12.5156 21.0938C13.5527 21.832 14.291 22.9922 15.1348 23.9414C16.5762 18.8086 18.0352 13.5527 19.4941 8.29688ZM52.1016 49.2363C52.1016 50.5371 52.1016 51.7676 52.1016 52.9277C53.6484 51.6973 55.1777 50.4668 56.707 49.2363C55.1777 49.2363 53.666 49.2363 52.1016 49.2363Z" fill="white"/>
<path d="M66.094 57.6914C67.0784 57.6914 67.9573 57.6914 68.9065 57.6914C68.9065 59.3965 68.9241 61.0488 68.8889 62.7187C68.8713 63.2637 68.9944 63.5801 69.5393 63.8613C71.3147 64.793 72.0881 66.7793 71.4905 68.7305C71.3499 69.2051 71.4377 69.4687 71.7542 69.7851C72.967 70.9805 74.1624 72.1934 75.3577 73.3887C75.3752 73.4062 75.3752 73.4414 75.4104 73.5117C74.76 74.0918 74.092 74.6894 73.3538 75.375C72.2639 74.2851 71.051 73.0723 69.8557 71.8418C69.4866 71.4551 69.1877 71.3672 68.6428 71.5254C66.551 72.1582 64.4241 71.1035 63.5979 69.1172C62.7717 67.1133 63.5276 64.8984 65.4788 63.8613C65.9885 63.5976 66.094 63.2988 66.094 62.7715C66.0764 61.084 66.094 59.4316 66.094 57.6914ZM67.4827 66.0937C66.7268 66.0937 66.094 66.7441 66.094 67.5C66.094 68.2559 66.7444 68.8887 67.5003 68.8887C68.2561 68.8887 68.8889 68.2383 68.8889 67.4824C68.8889 66.7266 68.2561 66.0937 67.4827 66.0937Z" fill="white"/>
<path d="M68.8887 53.4375C68.8887 54.1934 68.2383 54.8437 67.4824 54.8262C66.7266 54.8262 66.0938 54.1758 66.0938 53.4199C66.0938 52.6465 66.7266 52.0312 67.5 52.0312C68.2559 52.0312 68.9063 52.6641 68.8887 53.4375Z" fill="white"/>
<path d="M57.6738 59.0449C56.918 59.0449 56.2676 58.4297 56.2676 57.6563C56.2676 56.9004 56.8828 56.25 57.6562 56.25C58.4121 56.25 59.0625 56.8652 59.0625 57.6387C59.0625 58.3945 58.4297 59.0449 57.6738 59.0449Z" fill="white"/>
<path d="M77.3438 59.0449C76.5879 59.0449 75.9375 58.4121 75.9375 57.6563C75.9375 56.9004 76.5703 56.25 77.3262 56.25C78.082 56.25 78.7324 56.8828 78.7324 57.6387C78.75 58.4121 78.0996 59.0449 77.3438 59.0449Z" fill="white"/>
<path d="M53.4375 66.0938C54.1934 66.0938 54.8262 66.7441 54.8262 67.5C54.8262 68.2559 54.1758 68.8887 53.4199 68.8887C52.6641 68.8887 52.0312 68.2383 52.0312 67.4824C52.0312 66.7266 52.6816 66.0938 53.4375 66.0938Z" fill="white"/>
<path d="M81.5625 68.8887C80.8066 68.8887 80.1562 68.2559 80.1562 67.5C80.1562 66.7266 80.7891 66.0938 81.5449 66.0938C82.3008 66.0938 82.9512 66.7266 82.9512 67.4824C82.9687 68.2559 82.3359 68.8887 81.5625 68.8887Z" fill="white"/>
<path d="M57.7265 75.9375C58.4824 75.9726 59.0976 76.6582 59.0625 77.414C59.0273 78.1699 58.3594 78.7851 57.5859 78.75C56.8301 78.7148 56.2148 78.0293 56.25 77.2734C56.2851 76.5175 56.9707 75.9023 57.7265 75.9375Z" fill="white"/>
<path d="M77.3437 78.75C76.5879 78.75 75.9375 78.1172 75.9375 77.3613C75.9375 76.6055 76.5703 75.9551 77.3262 75.9551C78.082 75.9551 78.7324 76.5879 78.7324 77.3437C78.75 78.0996 78.1172 78.7324 77.3437 78.75Z" fill="white"/>
<path d="M67.4647 82.9686C66.7089 82.9511 66.076 82.3007 66.0936 81.5272C66.1112 80.7538 66.7616 80.1386 67.535 80.1561C68.2909 80.1737 68.9237 80.8241 68.9061 81.5975C68.871 82.3534 68.2206 82.9862 67.4647 82.9686Z" fill="white"/>
<path d="M23.9414 15.3984C23.9414 12.5859 23.9414 9.84375 23.9414 7.06641C42.6621 7.06641 61.3477 7.06641 80.0859 7.06641C80.0859 9.82617 80.0859 12.5859 80.0859 15.3984C61.4004 15.3984 42.6973 15.3984 23.9414 15.3984ZM26.7539 12.5859C43.6465 12.5859 60.4688 12.5859 77.2734 12.5859C77.2734 11.6367 77.2734 10.7402 77.2734 9.87891C60.3984 9.87891 43.5938 9.87891 26.7539 9.87891C26.7539 10.7754 26.7539 11.6367 26.7539 12.5859Z" fill="white"/>
<path d="M74.8301 37.002C75.6035 37.7227 76.2363 38.3203 76.834 38.9004C74.6367 41.0977 72.457 43.2598 70.3477 45.3516C69.1699 44.1738 67.9395 42.9434 66.6738 41.6953C67.2363 41.1855 67.9043 40.5879 68.7305 39.8145C69.1348 40.3594 69.627 41.0098 70.1543 41.7129C71.8418 40.0078 73.3359 38.4961 74.8301 37.002Z" fill="white"/>
<path d="M32.6777 22.8164C33.416 23.5898 34.0137 24.2402 34.5762 24.8203C32.4316 26.9473 30.252 29.0918 28.1426 31.166C27.0176 30.041 25.7695 28.793 24.5039 27.5273C25.0137 27.0352 25.6465 26.4199 26.4199 25.6641C26.8945 26.2969 27.3867 26.9297 27.9668 27.7031C29.6543 25.9629 31.1484 24.3984 32.6777 22.8164Z" fill="white"/>
<path d="M42.1523 59.4668C40.957 58.2715 39.7441 57.0586 38.4785 55.8105C39.1113 55.248 39.7617 54.6504 40.5879 53.8945C41.0098 54.4043 41.5195 55.0371 42.082 55.7402C43.6992 54.0879 45.1758 52.5586 46.7051 51.0117C47.4258 51.7676 48.041 52.418 48.6387 53.0332C46.4941 55.1426 44.332 57.3047 42.1523 59.4668Z" fill="white"/>
</svg>
