<svg width="40" height="40" viewBox="0 0 40 40" fill="none" xmlns="http://www.w3.org/2000/svg">
<rect x="1" y="1" width="38" height="38" rx="4" fill="white" stroke="#48CAE4" stroke-width="2"/>
<path d="M24.5696 10C24.9017 10.0898 25.2337 10.1797 25.5618 10.2734C25.6477 10.2969 25.7298 10.3438 25.8118 10.3867C26.9251 10.9531 28.1321 12.4492 28.3392 13.5898C28.5579 14.793 28.2767 15.8789 27.4056 16.7539C24.5149 19.6641 21.6087 22.5586 18.7102 25.457C18.3196 25.8477 17.8352 26.0273 17.3079 26.1289C16.2024 26.3438 15.1009 26.5625 13.9993 26.7891C12.9485 27.0078 11.9017 26.3516 11.6399 25.3047C11.5306 24.8672 11.597 24.4414 11.6868 24.0117C11.9095 22.9766 12.1243 21.9375 12.3431 20.9023C12.4407 20.4375 12.6478 20.0352 12.9837 19.6992C15.8626 16.8164 18.7415 13.9297 21.6204 11.0469C22.1829 10.4844 22.8548 10.1484 23.6438 10.0391C23.6829 10.0352 23.7181 10.0156 23.7532 10.0039C24.0227 10 24.2962 10 24.5696 10ZM13.5618 24.8438C13.6321 24.8398 13.6673 24.8438 13.7063 24.8359C14.8235 24.6484 15.9368 24.4648 17.054 24.2695C17.1634 24.25 17.2845 24.207 17.3587 24.1328C20.2259 21.2617 23.0892 18.3906 25.9485 15.5117C26.6517 14.8047 26.6477 13.9063 25.9485 13.1914C25.722 12.957 25.4876 12.7305 25.2571 12.5C24.5892 11.8359 23.6048 11.8359 22.9407 12.5039C20.2532 15.1914 17.5774 17.8906 14.8743 20.5664C14.4602 20.9766 14.1946 21.4023 14.1087 21.9883C13.9681 22.9414 13.7493 23.8789 13.5618 24.8438Z" fill="#48CAE4"/>
<path d="M12.3822 30C12.0189 29.8789 11.7337 29.6797 11.6322 29.2813C11.4642 28.6407 11.8783 28.086 12.5384 28.086C14.0033 28.0821 15.4642 28.086 16.929 28.086C20.3783 28.086 23.8236 28.086 27.2728 28.086C27.9056 28.086 28.3587 28.5742 28.2845 29.1758C28.2376 29.5469 28.0111 29.7813 27.6751 29.9219C27.6048 29.9493 27.5306 29.9766 27.4603 30C22.4368 30 17.4095 30 12.3822 30Z" fill="#48CAE4"/>
</svg>
