<svg width="90" height="90" viewBox="0 0 90 90" fill="none" xmlns="http://www.w3.org/2000/svg">
<g clip-path="url(#clip0_124_523)">
<path d="M90 50.9766C81.5449 50.9766 73.0723 50.9941 64.6172 50.9941C52.4707 50.9941 40.3242 50.9941 28.1602 50.9941C27.8086 50.9941 27.4746 50.9941 27.0176 50.9941C27.0176 44.5781 27.0176 38.25 27.0176 31.8691C24.3984 31.7109 22.0254 31.0957 19.793 29.8828C19.459 29.707 19.125 29.5137 18.8086 29.3203C17.2969 28.3887 16.9805 28.3184 14.9941 28.582C14.9941 30.0059 14.9941 31.4648 14.9941 33.0469C9.91406 33.0469 4.95703 33.0469 -0.0175781 33.0469C1.75205e-09 22.0254 1.75205e-09 11.0215 1.75205e-09 0C4.97461 0 9.9668 0 14.9414 0C14.9414 0.931641 14.9414 1.8457 14.9414 2.79492C16.3828 3.07617 17.6309 2.9707 18.8789 2.39063C20.6543 1.56445 22.4648 0.791016 24.2578 0C31.4648 0 38.6719 0 45.8789 0C45.9844 0.0527344 46.0723 0.123047 46.1953 0.140625C49.2891 0.580078 51.8906 1.98633 54.0703 4.20117C56.4609 6.60937 58.8691 9 61.2598 11.4082C61.6816 11.8477 62.1211 12.0059 62.7188 12.0059C68.502 11.9883 74.3027 12.0059 80.0859 11.9883C83.3906 11.9883 86.6953 11.9707 90 11.9531C90 24.9609 90 37.9688 90 50.9766ZM15.0469 6.0293C15.0469 12.4805 15.0469 18.9668 15.0469 25.4883C15.6445 25.4883 16.1719 25.541 16.6816 25.4707C17.877 25.3301 18.8438 25.752 19.8633 26.3848C21.1992 27.1934 22.6582 27.8262 24.1348 28.3711C24.9961 28.6875 25.9805 28.7227 27 28.8984C27 26.4727 27.0176 24.2578 26.9648 22.0254C26.9648 21.7793 26.6133 21.498 26.3496 21.3398C25.2598 20.6367 24.1523 19.9863 22.9746 19.2656C23.7305 18.334 24.3281 17.5957 24.9258 16.875C29.1094 20.2852 33.1172 20.0566 37.002 16.5234C39.9023 19.4238 42.75 22.2891 45.6152 25.1367C46.9863 26.5078 48.8145 26.5957 50.0625 25.3652C51.3281 24.1172 51.2578 22.3066 49.8867 20.918C48.4453 19.459 46.9863 18.0176 45.5449 16.5586C43.541 14.5547 41.5195 12.5508 39.5684 10.6172C40.2891 9.86133 40.9395 9.1582 41.6953 8.34961C42.7148 9.4043 43.6641 10.459 44.7188 11.4434C45.0352 11.7422 45.5625 11.9707 46.002 11.9707C49.5527 12.0059 53.0859 11.9883 56.6367 11.9883C56.8828 11.9883 57.1289 11.9707 57.5332 11.9355C57.2695 11.6543 57.0938 11.4609 56.918 11.2852C55.3008 9.66797 53.666 8.06836 52.084 6.43359C49.7988 4.07812 47.0215 2.9707 43.752 2.98828C37.8281 3.02344 31.9219 2.9707 25.998 3.02344C24.9785 3.04102 23.8887 3.28711 22.9746 3.72656C20.4961 4.95703 18.0879 6.27539 15.1875 5.95898C15.1523 5.97656 15.1172 5.99414 15.0469 6.0293ZM48.5332 15.0293C48.4805 15.0996 48.4102 15.1875 48.3574 15.2578C49.0606 15.9082 49.7988 16.5234 50.4668 17.2266C50.9766 17.7715 51.5215 18 52.2949 18C59.9941 17.9648 67.6934 17.9824 75.4102 17.9824C75.7441 17.9824 76.0957 17.9824 76.5352 17.9824C76.3594 20.2148 76.7285 22.1836 78.3106 23.7656C79.8926 25.3301 81.8613 25.6465 83.9707 25.4707C83.9707 29.5488 83.9707 33.4863 83.9707 37.4941C81.8086 37.3711 79.8223 37.7051 78.2402 39.2871C76.6758 40.8691 76.377 42.8555 76.5 44.9473C64.4414 44.9473 52.5059 44.9473 40.5176 44.9473C40.6934 39.7617 38.1094 37.3359 33.082 37.4414C33.082 33.416 33.082 29.4785 33.082 25.4707C35.5781 25.6641 37.7051 25.1367 39.1641 23.2031C38.2852 22.2539 37.4941 21.4102 36.6856 20.5313C34.6641 21.832 32.4492 22.3242 30.0586 22.2715C30.0586 30.8672 30.0586 39.3926 30.0586 47.9531C49.0606 47.9531 67.9922 47.9531 86.9238 47.9531C86.9238 36.9668 86.9238 26.0156 86.9238 15.0469C74.1094 15.0293 61.3125 15.0293 48.5332 15.0293ZM53.4551 25.8926C57.7266 22.6406 62.0332 24.1699 64.125 26.4199C66.5859 29.0918 66.832 33.2051 64.6523 36.123C62.4902 39.0234 58.5527 40.0078 55.3008 38.4434C53.666 37.6523 52.4356 36.4395 51.6797 34.7695C50.625 32.4668 50.7832 30.1816 51.9434 27.8262C48.2344 30.2695 45.0352 29.1973 42.8379 26.5957C42.4336 26.1035 42.0293 25.6113 41.5898 25.0488C39.9727 26.9473 38.1621 27.9492 36.0527 28.3887C36.0527 30.498 36.0527 32.5371 36.0527 34.5586C36.1406 34.5938 36.1934 34.6289 36.2461 34.6465C36.4219 34.6992 36.5801 34.7344 36.7559 34.7871C40.0606 35.7363 42.2227 37.8633 43.1543 41.168C43.3477 41.8359 43.5938 42.0117 44.2617 42.0117C53.7539 41.9941 63.2461 41.9941 72.7383 41.9941C73.0195 41.9941 73.3184 41.9941 73.582 41.9941C74.5313 37.9336 77.0274 35.5078 80.9473 34.5762C80.9473 32.4668 80.9473 30.4277 80.9473 28.3887C76.9219 27.457 74.4961 24.9609 73.582 21.0762C66.8672 21.0762 60.2578 21.0762 53.6133 21.0762C54.0879 23.0098 54.0879 23.0098 53.4551 25.8926ZM11.918 29.9707C11.918 20.9707 11.918 12.0059 11.918 3.07617C8.91211 3.07617 5.97656 3.07617 3.07617 3.07617C3.07617 12.0937 3.07617 21.0234 3.07617 29.9707C6.04688 29.9707 8.96484 29.9707 11.918 29.9707ZM62.9824 31.4648C62.9648 28.9863 60.9961 27.0176 58.5 27.0352C55.9863 27.0352 53.9649 29.0742 54 31.5527C54.0352 33.9961 56.0742 36.0176 58.5 36.0176C60.9961 36.0176 63 33.9785 62.9824 31.4648Z" fill="white"/>
<path d="M45.5277 90C41.9594 88.8926 39.0414 86.5723 35.8773 84.7266C29.057 80.7363 22.2895 76.6582 15.5219 72.5801C11.8832 70.3828 11.4262 65.4961 14.5902 62.7891C16.5063 61.1367 19.1078 60.873 21.4809 62.1562C26.3852 64.793 31.2543 67.4473 36.1586 70.084C36.3168 70.1719 36.475 70.2422 36.7035 70.3652C37.6879 67.7285 39.85 66.7969 42.3461 66.1641C47.4438 64.8633 52.5063 63.4043 57.6039 62.1035C59.0102 61.7519 60.4867 61.6113 61.9281 61.541C63.5629 61.4531 65.2152 61.5586 66.85 61.5059C68.6078 61.4531 70.1899 61.9277 71.6664 62.8594C72.7035 63.5098 73.7582 64.125 74.9711 64.8457C74.9711 63.1758 74.9711 61.6465 74.9711 59.959C80.0512 59.959 85.0258 59.959 90.0004 59.959C90.0004 69.9785 90.0004 79.998 90.0004 90.0176C85.0258 90.0176 80.0336 90.0176 75.059 90.0176C75.0238 89.3144 74.9887 88.6113 74.9711 87.8555C72.8793 88.6113 70.893 89.3144 68.9067 90.0176C61.1195 90 53.3149 90 45.5277 90ZM60.3813 73.8105C54.6859 75.3047 49.1488 76.8691 43.5414 78.1699C40.2543 78.9434 37.7055 77.2559 36.5453 74.0742C36.4574 73.8281 36.2465 73.5644 36.018 73.4414C30.6391 70.5234 25.2777 67.6055 19.8813 64.7402C19.3363 64.4414 18.5805 64.3535 17.9477 64.4414C16.6469 64.5996 15.7328 65.6016 15.5043 66.8672C15.2758 68.0977 15.8559 69.2754 17.1039 70.0137C26.1391 75.4277 35.1742 80.8594 44.2445 86.2207C45.0531 86.6953 46.1254 86.959 47.0746 86.959C53.8949 87.0293 60.7152 86.9941 67.5531 86.9766C68.2211 86.9766 68.9067 86.8535 69.5219 86.6426C71.1742 86.0449 72.7914 85.3594 74.4262 84.7441C74.8832 84.5684 75.0238 84.3223 75.0238 83.8477C75.0063 78.8906 75.0238 73.9512 74.9887 68.9941C74.9887 68.6777 74.725 68.2207 74.4438 68.0449C72.8969 67.0605 71.2973 66.1113 69.6977 65.1973C69.1703 64.8984 68.5727 64.582 67.9926 64.5644C65.3559 64.5117 62.6664 64.2305 60.1 64.6875C56.2504 65.3555 52.5063 66.5684 48.7094 67.5527C46.3539 68.168 44.016 68.8008 41.6781 69.4336C39.9906 69.8906 39.0238 71.4199 39.3754 73.0547C39.727 74.6367 41.2563 75.6387 42.9262 75.2344C46.477 74.373 50.0102 73.4062 53.5434 72.4922C55.5473 71.9648 57.5336 71.4375 59.5902 70.8926C59.8715 71.8945 60.1176 72.791 60.3813 73.8105ZM78.0473 86.9414C81.0883 86.9414 84.0238 86.9414 86.9594 86.9414C86.9594 78.9434 86.9594 71.0156 86.9594 63.0527C83.9711 63.0527 81.0356 63.0527 78.0473 63.0527C78.0473 71.0332 78.0473 78.9609 78.0473 86.9414Z" fill="white"/>
<path d="M68.9062 90C70.8926 89.2969 72.8613 88.5762 74.9707 87.8379C75.0059 88.5938 75.041 89.2969 75.0586 90C73.002 90 70.9629 90 68.9062 90Z" fill="white"/>
</g>
<defs>
<clipPath id="clip0_124_523">
<rect width="90" height="90" fill="white"/>
</clipPath>
</defs>
</svg>
