<svg width="90" height="90" viewBox="0 0 90 90" fill="none" xmlns="http://www.w3.org/2000/svg">
<path d="M44.6742 48.4945C44.7674 48.4945 44.8606 48.4945 44.9724 48.4945C45.0097 48.4945 45.047 48.4945 45.0842 48.4945C45.1402 48.4945 45.2147 48.4945 45.2706 48.4945C50.7314 48.4013 55.1484 46.4817 58.41 42.8101C65.5854 34.7215 64.3926 20.8553 64.2621 19.532C63.7962 9.59826 59.0996 4.84572 55.223 2.62787C52.3342 0.969145 48.9608 0.0745496 45.1961 0H45.0656C45.047 0 45.0097 0 44.9911 0H44.8792C42.8105 0 38.7475 0.335473 34.8523 2.55332C30.9385 4.77117 26.1673 9.52371 25.7014 19.532C25.5709 20.8553 24.3781 34.7215 31.5535 42.8101C34.7964 46.4817 39.2135 48.4013 44.6742 48.4945ZM30.6775 19.9979C30.6775 19.942 30.6962 19.8861 30.6962 19.8488C31.3112 6.48582 40.7976 5.05074 44.8606 5.05074H44.9352C44.9724 5.05074 45.0283 5.05074 45.0842 5.05074C50.1163 5.16256 58.6709 7.21267 59.2487 19.8488C59.2487 19.9047 59.2487 19.9607 59.2673 19.9979C59.2859 20.1284 60.5906 32.8018 54.6639 39.474C52.3156 42.1205 49.1845 43.4251 45.0656 43.4624C45.0283 43.4624 45.0097 43.4624 44.9724 43.4624C44.9352 43.4624 44.9165 43.4624 44.8792 43.4624C40.779 43.4251 37.6293 42.1205 35.2996 39.474C29.3916 32.8391 30.6589 20.1098 30.6775 19.9979Z" fill="white"/>
<path d="M83.272 71.4931C83.272 71.4745 83.272 71.4558 83.272 71.4372C83.272 71.2881 83.2534 71.139 83.2534 70.9713C83.1416 67.2811 82.8993 58.6519 74.8106 55.8936C74.7547 55.875 74.6802 55.8563 74.6243 55.8377C66.2188 53.6944 59.2298 48.8487 59.1552 48.7928C58.0183 47.9913 56.4528 48.2709 55.6514 49.4078C54.85 50.5447 55.1295 52.1102 56.2664 52.9116C56.5833 53.1353 64.0009 58.2978 73.2824 60.6834C77.6249 62.2303 78.1095 66.871 78.2399 71.1204C78.2399 71.2881 78.2399 71.4372 78.2586 71.5863C78.2772 73.2637 78.1654 75.8543 77.8672 77.3453C74.8479 79.0599 63.0132 84.9866 45.0094 84.9866C27.0803 84.9866 15.171 79.0413 12.1331 77.3266C11.8349 75.8356 11.7044 73.245 11.7417 71.5677C11.7417 71.4186 11.7603 71.2695 11.7603 71.1017C11.8908 66.8524 12.3753 62.2117 16.7179 60.6648C25.9993 58.2792 33.417 53.098 33.7338 52.893C34.8707 52.0916 35.1503 50.526 34.3488 49.3892C33.5474 48.2523 31.9819 47.9727 30.845 48.7741C30.7705 48.83 23.8187 53.6758 15.376 55.8191C15.3014 55.8377 15.2455 55.8563 15.1896 55.875C7.10097 58.6519 6.85868 67.2811 6.74685 70.9526C6.74685 71.1204 6.74685 71.2695 6.72822 71.4186C6.72822 71.4372 6.72822 71.4558 6.72822 71.4745C6.70958 72.4436 6.69094 77.4198 7.67872 79.9172C7.8651 80.4018 8.20057 80.8118 8.64787 81.0914C9.20699 81.4641 22.6073 90.0001 45.0281 90.0001C67.4489 90.0001 80.8492 81.4455 81.4083 81.0914C81.8369 80.8118 82.191 80.4018 82.3774 79.9172C83.3093 77.4384 83.2906 72.4623 83.272 71.4931Z" fill="white"/>
</svg>
