<svg width="110" height="110" viewBox="0 0 110 110" fill="none" xmlns="http://www.w3.org/2000/svg">
<circle cx="55" cy="55" r="54" fill="white" stroke="#48CAE4" stroke-width="2"/>
<path d="M55.301 57.6355C55.358 57.6355 55.4149 57.6355 55.4833 57.6355C55.506 57.6355 55.5288 57.6355 55.5516 57.6355C55.5858 57.6355 55.6313 57.6355 55.6655 57.6355C59.0026 57.5786 61.7019 56.4055 63.6951 54.1617C68.0801 49.2187 67.3511 40.7449 67.2714 39.9362C66.9867 33.8656 64.1165 30.9613 61.7475 29.6059C59.9821 28.5923 57.9206 28.0456 55.6199 28H55.5402C55.5288 28 55.506 28 55.4946 28H55.4263C54.1621 28 51.6792 28.205 49.2987 29.5604C46.9069 30.9157 43.9912 33.82 43.7065 39.9362C43.6268 40.7449 42.8978 49.2187 47.2828 54.1617C49.2646 56.4055 51.9639 57.5786 55.301 57.6355ZM46.7475 40.221C46.7475 40.1868 46.7589 40.1526 46.7589 40.1298C47.1347 31.9636 52.932 31.0866 55.4149 31.0866H55.4605C55.4833 31.0866 55.5174 31.0866 55.5516 31.0866C58.6268 31.1549 63.8545 32.4077 64.2076 40.1298C64.2076 40.164 64.2076 40.1982 64.219 40.221C64.2304 40.3007 65.0277 48.0456 61.4058 52.123C59.9707 53.7403 58.0573 54.5376 55.5402 54.5604C55.5174 54.5604 55.506 54.5604 55.4833 54.5604C55.4605 54.5604 55.4491 54.5604 55.4263 54.5604C52.9206 54.5376 50.9958 53.7403 49.5721 52.123C45.9616 48.0683 46.7361 40.2893 46.7475 40.221Z" fill="#48CAE4"/>
<path d="M78.8883 71.6902C78.8883 71.6788 78.8883 71.6674 78.8883 71.656C78.8883 71.5649 78.8769 71.4738 78.8769 71.3712C78.8085 69.1161 78.6605 63.8428 73.7174 62.1571C73.6833 62.1457 73.6377 62.1343 73.6035 62.123C68.4669 60.8132 64.1958 57.8519 64.1502 57.8177C63.4555 57.328 62.4987 57.4988 62.009 58.1936C61.5192 58.8883 61.6901 59.845 62.3848 60.3348C62.5785 60.4715 67.1115 63.6264 72.7835 65.0842C75.4372 66.0296 75.7334 68.8656 75.8131 71.4624C75.8131 71.5649 75.8131 71.656 75.8245 71.7471C75.8359 72.7722 75.7675 74.3553 75.5853 75.2665C73.7402 76.3143 66.5079 79.9362 55.5056 79.9362C44.5489 79.9362 37.271 76.3029 35.4145 75.2551C35.2322 74.3439 35.1525 72.7608 35.1753 71.7357C35.1753 71.6446 35.1867 71.5535 35.1867 71.451C35.2664 68.8542 35.5625 66.0182 38.2163 65.0728C43.8883 63.615 48.4213 60.4487 48.6149 60.3234C49.3097 59.8337 49.4805 58.8769 48.9908 58.1822C48.501 57.4874 47.5443 57.3166 46.8495 57.8063C46.804 57.8405 42.5557 60.8018 37.3962 62.1116C37.3507 62.123 37.3165 62.1343 37.2823 62.1457C32.3393 63.8428 32.1912 69.1161 32.1229 71.3599C32.1229 71.4624 32.1229 71.5535 32.1115 71.6446C32.1115 71.656 32.1115 71.6674 32.1115 71.6788C32.1001 72.271 32.0887 75.312 32.6924 76.8382C32.8063 77.1343 33.0113 77.3849 33.2846 77.5558C33.6263 77.7836 41.8154 83 55.517 83C69.2186 83 77.4076 77.7722 77.7493 77.5558C78.0113 77.3849 78.2277 77.1343 78.3416 76.8382C78.911 75.3234 78.8997 72.2824 78.8883 71.6902Z" fill="#48CAE4"/>
</svg>
