<svg width="90" height="90" viewBox="0 0 90 90" fill="none" xmlns="http://www.w3.org/2000/svg">
<path d="M45.703 0C48.0057 0.755859 50.2909 1.5293 52.5936 2.26758C59.0799 4.3418 65.5838 6.39844 72.0702 8.45508C73.3006 8.8418 74.2499 9.47461 74.496 10.8281C74.7772 12.3574 73.8104 13.7637 72.2284 14.0625C69.8729 14.502 67.4999 14.9063 65.1268 15.2754C64.494 15.3809 64.2303 15.5742 64.2479 16.2598C64.3006 17.7188 64.3182 19.1953 64.2479 20.6543C64.2128 21.2695 64.0721 21.9902 63.703 22.4473C63.246 23.0098 63.1581 23.5547 63.1581 24.2051C63.1756 27.2285 63.1405 30.2344 63.1756 33.2578C63.1932 35.1738 62.4725 36.5273 60.6268 37.2129C60.4159 37.2832 60.2049 37.5996 60.1698 37.8281C59.5897 41.8711 57.6913 45.1582 54.5448 47.7422C53.912 48.2695 54.0174 49.623 54.703 50.0801C58.2538 52.4004 61.787 54.7734 65.3729 57.0059C66.2342 57.5508 67.3417 57.709 68.3436 58.0078C70.7518 58.7285 73.1952 59.3438 75.2342 60.9434C78.8202 63.7559 80.5604 67.4648 80.578 71.9824C80.5956 75.9902 80.5956 80.0156 80.578 84.0234C80.5604 87.0645 79.0487 89.0156 76.1131 89.8594C76.0253 89.877 75.9549 89.9473 75.8846 89.9824C55.2655 89.9824 34.6288 89.9824 14.0096 89.9824C13.7987 89.9121 13.5702 89.8418 13.3592 89.7539C11.1092 88.9805 9.70299 87.4512 9.42174 85.0605C9.28112 83.9883 9.31627 82.8984 9.35143 81.8086C9.36901 80.9121 9.93151 80.4023 10.7225 80.4375C11.4784 80.4727 11.9354 80.9648 11.953 81.8438C11.9706 82.6348 11.9354 83.4258 11.9706 84.2168C12.0233 86.1328 13.2362 87.3105 15.1522 87.3105C16.91 87.3281 18.6678 87.3105 20.4256 87.3105C20.4784 87.3105 20.5311 87.293 20.7245 87.2402C20.7245 86.3789 20.7245 85.4824 20.7245 84.6035C20.7245 83.6895 20.7069 82.793 20.7245 81.8789C20.7421 80.9297 21.2694 80.332 22.0428 80.332C22.8163 80.332 23.3436 80.9297 23.3436 81.8789C23.3612 83.6543 23.3436 85.4473 23.3436 87.2754C37.7577 87.2754 52.0838 87.2754 66.5155 87.2754C66.5155 85.8164 66.5155 84.3926 66.5155 82.9688C66.5155 82.6172 66.5155 82.2656 66.5155 81.9141C66.5331 80.9473 67.0077 80.3496 67.7811 80.332C68.5897 80.3145 69.117 80.9297 69.1346 81.9316C69.1522 83.373 69.1346 84.7969 69.1346 86.2383C69.1346 86.5547 69.1346 86.8711 69.1346 87.2578C69.3983 87.2754 69.6268 87.3281 69.8378 87.3281C71.4725 87.3281 73.1249 87.3457 74.7596 87.3281C76.5526 87.3105 77.8534 86.2031 77.871 84.4277C77.9061 79.8574 78.0116 75.2871 77.7831 70.7168C77.5721 66.252 74.4608 62.6133 70.1542 61.2949C68.7303 60.8555 67.3065 60.416 65.8475 60.0645C65.4784 59.9766 64.9686 60.0293 64.6522 60.2227C58.5174 63.8262 52.4003 67.4473 46.3182 71.1211C45.3163 71.7363 44.5253 71.7363 43.5057 71.1211C37.4589 67.4824 31.3944 63.8965 25.3299 60.2754C24.8202 59.9766 24.3631 59.8711 23.7831 60.0645C22.535 60.4863 21.2518 60.8027 20.0038 61.1895C14.9413 62.7188 11.953 66.7266 11.9178 72.0176C11.9178 73.1953 11.9354 74.3555 11.9003 75.5332C11.8827 76.3242 11.3729 76.834 10.6698 76.8516C9.96666 76.8867 9.33385 76.3945 9.31627 75.6387C9.28112 72.8086 9.03502 69.9434 10.0546 67.2012C11.6717 62.8242 14.7479 60.0117 19.1952 58.6758C20.2499 58.3594 21.3573 58.1309 22.3944 57.7266C23.537 57.3047 24.6796 56.8301 25.6991 56.1973C28.828 54.2461 31.8866 52.1895 34.9803 50.168C35.9823 49.5176 36.0526 48.2871 35.1385 47.5137C32.1678 44.9824 30.3397 41.8008 29.7596 37.9336C29.7069 37.6348 29.4432 37.2305 29.1796 37.125C27.4745 36.3691 26.7362 35.3672 26.7362 33.4512C26.7186 30.2344 26.7538 27 26.701 23.7832C26.701 23.3613 26.4022 22.957 26.2616 22.5352C26.0331 21.8848 25.6991 21.2344 25.6463 20.5664C25.5585 19.0547 25.6288 17.5254 25.5936 15.9961C25.5936 15.75 25.3475 15.3457 25.1717 15.3105C23.1854 14.9414 21.1991 14.6074 19.1424 14.2734C19.1424 16.418 19.1424 18.4746 19.1424 20.3203C19.9335 20.8477 20.8475 21.1641 21.287 21.8145C21.7264 22.4824 21.8846 23.4668 21.8495 24.293C21.7264 27.8437 22.7284 31.2539 23.203 34.7168C23.3085 35.5254 23.5018 36.334 23.6073 37.1426C23.8885 39.2168 22.6229 40.6934 20.5311 40.7109C18.6854 40.7285 16.8397 40.7285 14.994 40.7109C12.8143 40.6934 11.5487 39.1289 11.9178 36.9844C12.4803 33.7852 13.078 30.5859 13.5526 27.3867C13.7284 26.209 13.6229 24.9961 13.6229 23.7832C13.6405 21.9199 14.4842 20.918 16.4178 20.6016C16.4178 18.334 16.4178 16.0664 16.4003 13.7813C16.4003 13.5879 16.2421 13.3594 16.1014 13.1836C14.6776 11.3906 15.2928 9.21094 17.4901 8.50781C25.6815 6.01172 33.7674 3.44531 41.8358 0.861328C42.662 0.597656 43.4706 0.28125 44.2967 0C44.7714 0 45.2284 0 45.703 0ZM35.1913 23.5898C35.1913 24.4863 35.2089 25.3828 35.1913 26.2793C35.121 28.5996 33.3631 30.3398 31.0253 30.4102C30.5331 30.4277 30.0409 30.4102 29.4784 30.4102C29.4784 31.623 29.4256 32.7656 29.5135 33.8906C29.5311 34.1719 30.0409 34.5586 30.3749 34.6641C31.7284 35.0156 32.2206 35.5254 32.3612 36.8613C32.9764 43.4707 38.4432 48.498 45.0174 48.498C51.5565 48.498 57.0057 43.4883 57.6385 36.9316C57.7792 35.5078 58.2362 35.0332 59.6424 34.6641C59.9764 34.5762 60.4686 34.1719 60.4862 33.873C60.5917 32.748 60.5213 31.623 60.5213 30.4277C60.0467 30.4277 59.66 30.4277 59.2909 30.4277C56.5311 30.4102 54.826 28.6875 54.7909 25.9277C54.7909 25.1719 54.7909 24.416 54.7909 23.625C48.2518 23.5898 41.7831 23.5898 35.1913 23.5898ZM71.8592 11.4609C71.8592 11.3906 71.8592 11.3027 71.8592 11.2324C71.6835 11.1621 71.5077 11.0742 71.3143 11.0039C62.7186 8.26172 54.1053 5.51953 45.4921 2.8125C45.1405 2.70703 44.6835 2.74219 44.3143 2.86523C35.8417 5.53711 27.369 8.24414 18.9139 10.9336C18.6327 11.0215 18.369 11.1445 18.1053 11.25C18.369 11.4961 18.5975 11.5664 18.8085 11.6016C20.7596 11.9355 22.7284 12.2871 24.6971 12.6035C25.5936 12.7441 26.5077 13.043 27.3866 12.9551C30.8495 12.6035 34.2948 12.1289 37.7577 11.6895C41.4491 11.2148 45.1405 10.7227 48.8671 11.2676C50.3788 11.4785 51.8905 11.6191 53.4022 11.8301C54.2108 11.9355 54.7206 12.5684 54.6503 13.2715C54.5799 13.9922 53.9823 14.4668 53.1561 14.4492C52.8397 14.4316 52.5233 14.3789 52.1893 14.3437C48.9901 13.957 45.8085 13.4121 42.5741 13.7637C39.5506 14.0977 36.5272 14.502 33.5038 14.8711C31.7987 15.082 30.0936 15.293 28.4061 15.5039C28.4061 17.3496 28.4061 19.0898 28.4061 20.8652C39.4979 20.8652 50.5194 20.8652 61.576 20.8652C61.576 19.0547 61.576 17.2969 61.576 15.5215C61.2245 15.4688 60.9256 15.416 60.6444 15.3633C60.328 15.3281 60.0116 15.293 59.6776 15.2578C58.5702 15.1172 58.0604 14.5898 58.1483 13.7285C58.2362 12.9023 58.8338 12.5156 59.9061 12.6387C61.6112 12.832 63.3163 13.1309 65.0389 12.6562C65.7069 12.4629 66.4276 12.4102 67.1131 12.2871C68.7128 12.0059 70.2772 11.7422 71.8592 11.4609ZM38.4784 49.6582C38.3729 52.1367 38.6366 54.4219 39.2342 56.6543C39.287 56.8477 39.6034 57.0762 39.8319 57.1289C43.2596 57.7441 46.7049 57.7441 50.1327 57.1465C50.3612 57.1113 50.6952 56.9531 50.7479 56.7949C51.3632 54.5098 51.662 52.1719 51.5214 49.6758C47.162 51.5742 42.8729 51.5918 38.4784 49.6582ZM62.6483 58.4121C59.8006 56.5488 57.0233 54.7383 54.1229 52.8398C53.6483 57.7266 52.0663 62.1211 49.535 66.2168C53.8592 63.6328 58.201 61.0488 62.6483 58.4121ZM40.4647 66.1992C37.9159 62.1035 36.369 57.7266 35.8768 52.8398C32.994 54.7207 30.2167 56.5488 27.3514 58.4121C31.7987 61.0488 36.1405 63.6152 40.4647 66.1992ZM16.2596 28.4766C16.2069 28.5469 16.1717 28.5996 16.1542 28.6523C15.6268 31.6055 15.1171 34.5762 14.6073 37.5469C14.5018 38.127 14.871 38.1621 15.2928 38.1445C16.9803 38.1445 18.6854 38.1094 20.3729 38.1621C21.0585 38.1797 21.1639 37.8809 21.0585 37.3008C20.8651 36.334 20.7245 35.3496 20.5487 34.3652C20.2147 32.4141 19.8807 30.4629 19.5292 28.4766C18.4042 28.4766 17.3319 28.4766 16.2596 28.4766ZM44.9471 68.0977C46.6874 65.3203 48.5682 62.9121 49.6053 60.0996C46.494 60.0996 43.453 60.0996 40.1483 60.0996C41.7479 62.7539 43.2948 65.3379 44.9471 68.0977ZM29.4784 27.7734C30.076 27.7734 30.5682 27.8086 31.0604 27.7734C31.8338 27.7031 32.4315 27.2812 32.5018 26.4902C32.5897 25.541 32.5194 24.5918 32.5194 23.6074C31.4647 23.6074 30.4803 23.6074 29.4784 23.6074C29.4784 24.9961 29.4784 26.332 29.4784 27.7734ZM57.4452 23.5723C57.4452 24.5391 57.41 25.418 57.4452 26.2793C57.4803 27.123 58.0077 27.6152 58.8163 27.7383C59.3436 27.8086 59.9061 27.7559 60.4686 27.7559C60.4686 26.3145 60.4686 24.9609 60.4686 23.5723C59.4667 23.5723 58.5174 23.5723 57.4452 23.5723ZM16.4178 25.7344C17.4549 25.7344 18.369 25.7344 19.2831 25.7344C19.2831 24.9258 19.2831 24.1699 19.2831 23.4141C18.2987 23.4141 17.3846 23.4141 16.4178 23.4141C16.4178 24.2051 16.4178 24.9609 16.4178 25.7344Z" fill="white"/>
</svg>
