<svg width="90" height="90" viewBox="0 0 90 90" fill="none" xmlns="http://www.w3.org/2000/svg">
<g clip-path="url(#clip0_124_530)">
<path d="M39.5508 90C37.8457 89.7715 36.1231 89.5957 34.4356 89.2969C25.2598 87.6797 17.3496 83.5664 10.7051 77.0625C9.8086 76.1836 9.82618 75.5684 10.7227 74.6719C11.9356 73.4414 13.166 72.2285 14.3965 70.9981C15.3633 70.0313 15.9082 70.0137 16.9277 70.9981C21.5156 75.4629 26.9121 78.5039 33.0996 80.1387C52.8399 85.3594 73.2305 72.9316 77.7129 52.9453C82.1426 33.0996 69.4336 13.3945 49.3945 9.42188C37.7402 7.11914 27.2813 10.002 18.2285 17.7539C18.0352 17.9297 17.8066 18.0703 17.4727 18.334C18.2988 19.1074 19.0195 19.7402 19.6875 20.4258C20.6895 21.4453 20.4082 22.5352 19.0195 22.9219C14.2383 24.1875 9.45704 25.4531 4.67579 26.6836C3.32227 27.0352 2.51368 26.2441 2.84766 24.8906C4.09571 20.0742 5.36133 15.2754 6.64454 10.459C6.9961 9.12305 8.08594 8.8418 9.0879 9.82617C9.86133 10.582 10.582 11.3906 11.3731 12.2168C11.7598 11.8828 12.0762 11.6191 12.375 11.3555C15.0645 8.96484 17.9824 6.92578 21.1465 5.25586C22.2012 4.69336 22.9395 4.81641 23.3438 5.58984C23.7305 6.32813 23.4141 7.03125 22.4297 7.55859C18.8086 9.47461 15.5391 11.8828 12.6035 14.7305C11.707 15.5918 11.0918 15.5742 10.1953 14.6777C9.72071 14.2031 9.28126 13.6934 8.66602 13.0254C7.7168 16.6641 6.82032 20.0566 5.8711 23.6426C9.4043 22.7109 12.832 21.832 16.4531 20.8828C15.8379 20.3027 15.3281 19.8633 14.8711 19.3887C14.1504 18.6328 14.1504 17.9824 14.9063 17.2441C21.2871 11.0742 28.8457 7.34766 37.6875 6.36328C47.6719 5.23828 56.8652 7.52344 64.9863 13.4648C74.0391 20.0742 79.4707 28.9863 80.8242 40.166C82.8281 56.4258 75.1289 71.3496 60.75 79.2774C53.7363 83.1445 46.1602 84.5508 38.1973 83.7422C29.6543 82.8633 22.2188 79.4531 15.8731 73.6699C15.8379 73.6348 15.7676 73.5996 15.75 73.582C14.9941 74.3731 14.2207 75.1641 13.3594 76.0781C14.8535 77.2559 16.3828 78.6094 18.0527 79.7695C41.6074 96.0996 74.1094 84.9199 82.7051 57.5684C89.3145 36.5625 78.3457 13.6582 57.832 5.625C48.3399 1.91602 38.7246 1.66992 29.0215 4.74609C27.6328 5.18555 26.9648 5.00977 26.666 4.11328C26.3672 3.23438 26.8066 2.70703 28.2129 2.23242C31.6758 1.08984 35.2266 0.369141 38.8652 0.123047C39.0938 0.105469 39.3223 0.0351563 39.5508 -0.0175781C41.3613 -0.0175781 43.1895 -0.0175781 45 -0.0175781C45.2813 0.0351563 45.5625 0.105469 45.8613 0.140625C49.7285 0.421875 53.5078 1.19531 57.1641 2.51367C79.1191 10.3887 91.3359 32.9238 85.9746 55.6524C81.9316 72.8438 67.377 86.4492 50.0274 89.3145C48.3574 89.5957 46.6699 89.7715 45 90C43.1895 90 41.3613 90 39.5508 90Z" fill="white"/>
<path d="M71.9998 44.0857C71.8065 53.6834 68.6073 61.0662 62.2088 67.0252C61.3651 67.7986 60.6444 67.8689 60.0643 67.2713C59.5018 66.6912 59.5721 65.865 60.3104 65.1971C62.2264 63.4568 63.8787 61.4881 65.2498 59.2908C75.4627 42.8904 65.5311 21.2166 46.4412 18.2635C31.6932 15.9783 17.8768 25.9803 15.4862 40.658C13.0428 55.6521 23.5018 69.8025 38.619 71.8592C44.1912 72.615 49.5174 71.6834 54.5623 69.1521C54.7733 69.0467 54.9666 68.9236 55.1776 68.8357C55.9686 68.4666 56.7244 68.6599 57.076 69.3279C57.4276 69.9959 57.1815 70.7517 56.408 71.1736C53.4725 72.7732 50.3612 73.8631 47.074 74.3553C32.8709 76.5174 19.5643 68.8006 14.4315 55.4763C8.49007 40.0603 16.8045 22.2713 32.4491 16.9451C49.4823 11.1443 67.4295 21.199 71.2967 38.7771C71.7362 40.781 71.8592 42.8728 71.9998 44.0857Z" fill="white"/>
<path d="M17.8595 44.965C17.8946 31.4826 28.8809 20.5314 42.3282 20.5842C55.8106 20.6369 66.7091 31.6408 66.6388 45.1057C66.5684 58.5354 55.5997 69.4514 42.17 69.3986C28.7579 69.3635 17.8243 58.3771 17.8595 44.965ZM20.4962 44.9826C20.4786 56.9533 30.2169 66.7443 42.1876 66.7795C54.1934 66.8146 64.002 57.0412 64.002 45.0178C64.0196 33.0295 54.2989 23.2736 42.3106 23.2209C30.3223 23.1857 20.5138 32.9416 20.4962 44.9826Z" fill="white"/>
<path d="M43.5763 38.1444C43.5763 39.3398 43.5763 40.5527 43.5763 41.748C43.5763 42.5566 43.5939 43.2773 44.0861 44.0507C44.9826 45.4218 43.7697 47.1445 42.0998 47.1269C41.6076 47.1269 41.0627 47.2323 40.6408 47.4609C38.5666 48.6034 36.5275 49.8163 34.4709 50.9765C33.5568 51.4863 32.6252 51.205 32.3791 50.3613C32.1506 49.5527 32.5549 49.0429 33.2404 48.6562C35.3322 47.4784 37.4064 46.2831 39.4631 45.0527C40.3595 44.5077 40.8869 43.6288 40.9045 42.5741C40.9396 39.5507 40.922 36.5448 40.922 33.5214C40.922 32.537 41.3967 31.9921 42.2053 31.9745C43.0138 31.9569 43.5412 32.5194 43.5412 33.4862C43.5939 35.0331 43.5763 36.5976 43.5763 38.1444Z" fill="white"/>
<path d="M26.1208 34.3652C27.0524 34.3828 28.3884 35.4551 28.4059 36.2109C28.4235 36.9316 27.8083 37.5645 27.0876 37.5645C26.1208 37.5469 24.7673 36.4043 24.8024 35.6309C24.82 34.9277 25.4177 34.3652 26.1208 34.3652Z" fill="white"/>
<path d="M57.3923 37.8105C56.9177 37.3887 56.3903 37.1426 56.2497 36.7558C56.1091 36.3691 56.1794 35.7012 56.443 35.4199C56.8825 34.9629 57.5329 34.5937 58.1481 34.4531C58.5173 34.3652 59.1677 34.6289 59.3962 34.9629C59.6247 35.2793 59.695 36.0527 59.4665 36.2988C58.9391 36.8789 58.1833 37.2656 57.3923 37.8105Z" fill="white"/>
<path d="M40.9219 26.9298C40.9395 26.6134 40.8516 26.1915 41.0098 25.9982C41.3438 25.6115 41.7832 25.1896 42.2402 25.1017C42.873 24.9611 43.3828 25.4181 43.4883 26.0685C43.5938 26.631 43.5938 27.2462 43.4883 27.8087C43.3652 28.4943 42.8555 28.8634 42.1523 28.8107C41.4316 28.7579 40.9922 28.3185 40.9395 27.5626C40.9219 27.3517 40.9395 27.1583 40.9395 26.9474C40.9395 26.9298 40.9219 26.9298 40.9219 26.9298Z" fill="white"/>
<path d="M26.1037 55.8807C25.6115 55.4413 25.0666 55.1776 24.9436 54.7733C24.8205 54.369 24.9787 53.7186 25.26 53.3846C25.6115 52.9803 26.2092 52.6464 26.7541 52.5409C27.176 52.4706 27.844 52.6815 28.0901 52.9979C28.3361 53.3319 28.3889 54.1405 28.1604 54.4042C27.633 54.9842 26.8772 55.3358 26.1037 55.8807Z" fill="white"/>
<path d="M57.3747 52.4354C58.2888 52.4002 59.7126 53.5604 59.7126 54.3162C59.7126 55.0018 59.1325 55.5994 58.4294 55.617C57.5329 55.6346 56.1443 54.5623 56.0915 53.824C56.0388 53.1209 56.654 52.4529 57.3747 52.4354Z" fill="white"/>
<path d="M34.8047 60.1698C34.8047 61.1718 33.6973 62.4726 32.8887 62.4374C32.168 62.4198 31.6406 61.8573 31.6406 61.1366C31.6406 60.1874 32.6953 58.8866 33.4688 58.8691C34.207 58.8515 34.8047 59.414 34.8047 60.1698Z" fill="white"/>
<path d="M40.9395 63.0701C40.9395 62.8592 40.9219 62.6658 40.9395 62.4549C40.9922 61.699 41.4316 61.2771 42.1523 61.1893C42.8379 61.1014 43.4531 61.6287 43.541 62.367C43.5938 62.7361 43.5762 63.1228 43.5586 63.5096C43.5234 64.3885 42.9961 64.951 42.2402 64.951C41.4668 64.951 40.9746 64.4061 40.9395 63.5096C40.9395 63.3689 40.9395 63.2283 40.9395 63.0701Z" fill="white"/>
<path d="M35.0687 29.8476C34.6117 30.3398 34.348 30.8848 33.9437 31.0078C33.5394 31.1308 32.889 30.9551 32.5551 30.6738C32.1508 30.3398 31.8168 29.7773 31.7289 29.2676C31.6586 28.8281 31.8168 28.1601 32.1332 27.8965C32.4496 27.6328 33.2758 27.5273 33.5219 27.7558C34.1195 28.2832 34.5062 29.0566 35.0687 29.8476Z" fill="white"/>
<path d="M51.627 27.5625C51.7149 27.5801 51.9082 27.5801 52.0664 27.6504C52.7696 27.9141 53.0684 28.7227 52.7344 29.4609C52.1192 30.9023 51.3282 31.4297 50.4493 31.0254C49.6758 30.6562 49.5176 29.8477 50.0098 28.9336C50.6075 27.8262 50.8887 27.5801 51.627 27.5625Z" fill="white"/>
<path d="M51.6093 62.4375C50.8183 62.4727 50.5019 61.9278 50.1679 61.3653C49.8163 60.7676 49.4824 60.1875 49.8866 59.502C50.2558 58.8868 50.8359 58.7461 51.4863 58.9571C52.1015 59.168 52.998 60.6973 52.8749 61.3301C52.7343 61.9981 52.33 62.4024 51.6093 62.4375Z" fill="white"/>
<path d="M24.2052 43.5059C24.7677 43.7344 25.3302 43.8398 25.7169 44.1562C26.2442 44.5781 26.1388 45.4922 25.629 45.9492C25.0665 46.459 23.3087 46.4766 22.7462 45.9668C22.2364 45.5098 22.0958 44.6133 22.6232 44.1738C23.0275 43.8574 23.6251 43.752 24.2052 43.5059Z" fill="white"/>
<path d="M60.5566 43.6992C60.627 43.6992 60.9609 43.6289 61.1367 43.7519C61.541 44.0683 62.0508 44.4375 62.1387 44.8769C62.2266 45.2285 61.8223 46.0019 61.541 46.0547C60.7324 46.2129 59.8359 46.1777 59.0273 46.0019C58.7637 45.9492 58.5 45.1933 58.5 44.7715C58.5176 43.998 59.1328 43.6816 60.5566 43.6992Z" fill="white"/>
</g>
<defs>
<clipPath id="clip0_124_530">
<rect width="90" height="90" fill="white"/>
</clipPath>
</defs>
</svg>
