<svg width="90" height="90" viewBox="0 0 90 90" fill="none" xmlns="http://www.w3.org/2000/svg">
<path d="M90 14.0449C89.4902 15.0996 88.7344 15.7852 87.3633 15.6621C87.3633 16.0664 87.3633 16.418 87.3633 16.752C87.3633 25.3301 87.3633 33.9258 87.3633 42.5039C87.3633 44.5078 86.5723 45.2988 84.5332 45.2988C79.4355 45.2988 74.3379 45.2988 69.2402 45.2988C68.8887 45.2988 68.5371 45.2988 68.2031 45.2988C67.834 46.6348 67.957 46.9512 69.0117 47.6719C70.5059 48.6738 71.1914 50.5195 70.7168 52.207C70.207 53.9824 68.6777 55.1777 66.8496 55.2305C65.0039 55.2656 63.3867 54.1406 62.8242 52.418C62.2617 50.7305 62.7891 48.7266 64.3184 47.8477C65.4082 47.2148 65.5664 46.4941 65.3203 45.3164C65.0742 45.3164 64.8105 45.3164 64.5293 45.3164C60.5391 45.3164 56.5664 45.334 52.5762 45.2988C51.9785 45.2988 51.627 45.4922 51.2754 45.9668C49.5703 48.2695 47.8301 50.5547 46.0547 52.9102C48.1816 55.0195 48.3398 57.6562 48.3223 60.416C48.2695 67.4473 48.3047 74.4785 48.3047 81.5098C48.3047 83.1094 47.9355 83.4961 46.3535 83.4961C35.4902 83.4961 24.627 83.5137 13.7461 83.4785C12.6211 83.4785 11.6719 83.6894 10.6875 84.2695C8.01562 85.8516 4.71094 85.623 2.42578 83.8301C1.125 82.793 0.457031 81.3691 0 79.8047C0 72.2988 0 64.8105 0 57.3047C0.0527344 57.1992 0.105469 57.0937 0.140625 56.9883C1.17773 52.8047 3.99023 50.5723 8.2793 50.5723C11.1797 50.5723 14.0801 50.5723 16.9805 50.5723C17.2969 50.5723 17.5957 50.5723 17.9824 50.5723C17.9824 48.8672 17.9648 47.2852 18 45.7031C18.0176 45.1758 17.8418 44.8769 17.3848 44.5781C15.0996 43.084 13.5527 40.9922 12.7441 38.373C12.5508 37.7402 12.4277 37.0723 12.2695 36.3516C11.4961 36.3516 10.7402 36.3867 9.98437 36.3516C8.13867 36.2461 6.73242 35.4023 5.90625 33.75C5.11523 32.168 5.09766 30.4629 6.20508 29.0918C7.06641 28.0547 7.20703 27 7.13672 25.7871C7.10156 25.2246 7.11914 24.6797 7.13672 24.1172C7.17187 23.1152 7.69922 22.5 8.49023 22.5176C9.26367 22.5527 9.73828 23.1328 9.75586 24.1172C9.77344 25.0137 9.75586 25.9277 9.75586 26.8594C10.6348 26.8594 11.4082 26.8594 12.2871 26.8594C12.2871 26.4902 12.2871 26.1738 12.2871 25.8574C12.2871 23.4492 12.2695 21.0586 12.3047 18.6504C12.3047 16.8574 13.3594 15.3281 15.0293 14.8887C16.752 14.4316 18.5625 14.3438 20.1797 15.1699C24.3105 17.2793 28.6699 18.2637 33.3105 18.0703C34.9277 18 36.0176 19.125 36.0352 20.7422C36.0527 22.5 36.0352 24.2578 36.0352 26.0156C36.0352 26.2969 36.0352 26.5781 36.0352 26.8418C36.9316 26.8418 37.6875 26.8418 38.4785 26.8418C38.4961 26.666 38.5312 26.5254 38.5312 26.3848C38.5312 22.5176 38.584 18.6504 38.4961 14.7832C38.4258 10.5469 35.1035 7.38281 30.8672 7.34766C27.791 7.33008 24.7148 7.33008 21.6387 7.34766C19.8633 7.36523 18.4043 8.12109 17.5957 9.68555C17.0156 10.8281 16.2598 11.2148 15.082 11.0566C14.8184 11.0215 14.5547 11.0566 14.291 11.0566C11.5313 11.0742 9.79102 12.7969 9.73828 15.5566C9.7207 16.2949 9.75586 17.0156 9.70313 17.7539C9.65039 18.4922 9.21094 18.9492 8.45508 18.9668C7.69922 19.002 7.1543 18.5801 7.13672 17.8418C7.11914 16.4707 7.03125 15.0645 7.3125 13.7285C7.98047 10.5469 10.7402 8.45508 14.0625 8.40234C14.5723 8.40234 15.0996 8.56055 15.5215 7.92773C17.0156 5.74805 19.125 4.67578 21.7793 4.67578C24.8027 4.69336 27.8086 4.67578 30.832 4.67578C31.3594 4.67578 31.8867 4.69336 32.4141 4.78125C37.6172 5.67773 41.1152 9.80859 41.1504 15.0996C41.1855 19.1074 41.1504 23.1328 41.168 27.1406C41.168 27.5098 41.291 27.9668 41.5195 28.2305C42.9258 29.8125 43.3125 31.5879 42.4688 33.5215C41.6074 35.4551 39.9902 36.3164 37.8984 36.334C37.2656 36.334 36.6328 36.334 36.0352 36.334C35.9648 36.5273 35.9121 36.6152 35.8945 36.7031C35.3496 40.1309 33.5918 42.7852 30.709 44.7012C30.5332 44.8242 30.3223 45.0352 30.3223 45.2109C30.2871 46.9512 30.3047 48.709 30.3047 50.5371C32.9766 50.5371 35.5078 50.5371 38.0566 50.5371C40.043 50.5371 42.0469 50.3437 43.9102 51.3281C45.4219 49.3066 46.8809 47.373 48.3926 45.3691C46.248 45 45.7207 44.3672 45.7207 42.3457C45.7207 33.8203 45.7207 25.2949 45.7207 16.7695C45.7207 16.4355 45.7207 16.084 45.7207 15.7676C43.5059 15.3281 43.084 14.8008 43.084 12.5859C43.084 12.2695 43.084 11.9355 43.084 11.6191C43.084 9.59766 43.875 8.80664 45.9141 8.80664C59.6602 8.80664 73.3887 8.80664 87.1348 8.78906C88.4883 8.78906 89.4727 9.19336 89.9824 10.4941C90 11.707 90 12.8848 90 14.0449ZM84.6738 15.7324C72.5625 15.7324 60.5215 15.7324 48.4453 15.7324C48.4453 24.7324 48.4453 33.6797 48.4453 42.5918C49.7813 42.8906 50.7305 42.6269 51.4687 41.4141C52.2246 40.166 53.1914 39.0586 54.0879 37.8984C54.6855 37.125 55.4062 36.9668 56.0566 37.4238C56.7422 37.916 56.7773 38.6719 56.1797 39.498C55.9512 39.8144 55.7227 40.1133 55.4941 40.4121C54.9668 41.1152 54.4219 41.8359 53.8242 42.6445C64.2129 42.6445 74.4258 42.6445 84.6738 42.6445C84.6738 33.6621 84.6738 24.7324 84.6738 15.7324ZM24.1523 54.457C23.4668 55.6172 22.8516 56.6367 22.2363 57.6738C21.252 59.3086 19.8633 59.5195 18.4395 58.2891C16.6816 56.7422 14.9238 55.1953 13.1484 53.666C12.9023 53.4551 12.5508 53.2441 12.2344 53.2441C10.6172 53.209 9.01758 53.1738 7.40039 53.2617C4.78125 53.3848 2.6543 55.582 2.63672 58.2187C2.60156 65.1094 2.60156 71.9824 2.63672 78.873C2.63672 80.7187 3.99023 82.3008 5.76562 82.5996C7.04883 82.8105 8.29687 82.6875 9.49219 81.9844C13.0957 79.8574 16.7344 77.7832 20.3555 75.6914C20.6016 75.5508 20.8477 75.375 21.1289 75.2871C21.7793 75.0762 22.377 75.1992 22.7285 75.832C23.0977 76.4824 22.9746 77.0801 22.377 77.5547C22.0957 77.7656 21.7793 77.9238 21.4805 78.0996C19.9687 78.9785 18.4746 79.8398 16.7695 80.8242C23.8535 80.8242 30.6738 80.8242 37.5645 80.8242C37.5645 80.4551 37.5645 80.1387 37.5645 79.8047C37.5645 77.7305 37.5645 75.6387 37.5645 73.5644C37.5645 72.8613 37.916 72.3867 38.6191 72.2637C39.2695 72.1406 39.7969 72.3867 40.043 73.0195C40.166 73.3359 40.1836 73.7051 40.1836 74.0566C40.2012 76.0254 40.1836 77.9766 40.1836 79.9453C40.1836 80.2441 40.1836 80.5605 40.1836 80.8418C42.082 80.8418 43.8223 80.8418 45.5625 80.8418C45.5977 80.7012 45.6328 80.6309 45.6328 80.543C45.6328 73.1074 45.6504 65.6543 45.6152 58.2187C45.6152 57.0937 45.2461 56.0566 44.3848 55.125C42.8203 57.1992 41.3086 59.1855 39.832 61.207C39.7266 61.3477 39.8145 61.6992 39.8848 61.9102C40.9395 64.582 40.1309 67.2539 37.6875 68.6953C34.4531 70.6289 31.166 72.4922 27.8789 74.373C27.0527 74.8477 26.2793 74.6719 25.8926 73.9863C25.5059 73.2832 25.752 72.5801 26.5957 72.0879C27.4746 71.5605 28.3535 71.0684 29.2852 70.5234C28.3535 68.9238 27.4746 67.3945 26.5605 65.8125C24.4512 67.0254 22.4297 68.1855 20.4082 69.3633C17.0332 71.3144 13.6758 73.2656 10.3008 75.1992C9.14062 75.8672 8.08594 75.3926 8.06836 74.1797C8.01563 72.123 8.0332 70.084 8.06836 68.0273C8.08594 67.2715 8.66602 66.7441 9.35156 66.7266C10.0723 66.709 10.6348 67.2715 10.6699 68.0801C10.6875 68.4316 10.6699 68.7832 10.6699 69.1348C10.6699 70.0137 10.6699 70.8926 10.6699 71.9121C11.127 71.666 11.4082 71.5254 11.6719 71.3672C18.2285 67.5703 24.8203 63.8086 31.3418 59.9766C33.4336 58.7461 35.4902 58.2539 37.7578 59.5195C39.252 57.5332 40.7109 55.582 42.3105 53.4727C41.4844 53.3848 40.8867 53.2793 40.2891 53.2617C38.9355 53.2266 37.5996 53.2266 36.2461 53.2793C35.8418 53.2969 35.3848 53.4551 35.0859 53.7187C33.3281 55.2129 31.6055 56.7598 29.8652 58.2891C28.3887 59.5898 27.0176 59.3789 25.998 57.709C25.4355 56.6191 24.8379 55.582 24.1523 54.457ZM33.3809 20.7246C32.9941 20.7246 32.6426 20.7246 32.3086 20.7246C28.002 20.7598 23.8711 19.916 20.0215 17.9648C18.8613 17.3848 17.7012 17.209 16.4707 17.2793C15.4336 17.332 14.9238 17.8418 14.9238 18.8965C14.9238 24.4336 14.9062 29.9707 14.9414 35.4902C14.959 37.6699 15.8203 39.5332 17.3145 41.0977C19.4062 43.3125 22.043 43.9102 24.9961 43.7871C29.6719 43.5937 33.3633 39.9375 33.416 35.2441C33.4688 30.5859 33.4336 25.9277 33.4336 21.2695C33.416 21.1289 33.3984 20.9531 33.3809 20.7246ZM45.791 12.9727C59.6602 12.9727 73.4766 12.9727 87.3105 12.9727C87.3105 12.4629 87.3105 12.0059 87.3105 11.5312C73.459 11.5312 59.6602 11.5312 45.791 11.5312C45.791 12.0059 45.791 12.4453 45.791 12.9727ZM31.6406 69.1699C33.3281 68.2031 34.9102 67.3242 36.457 66.375C37.7754 65.5664 38.1445 63.9844 37.4063 62.7012C36.7207 61.5059 35.1562 60.9258 33.9082 61.5762C32.2383 62.4551 30.6211 63.4394 28.8984 64.4238C29.8301 66.0234 30.709 67.5527 31.6406 69.1699ZM20.6543 50.4844C23.0098 50.4844 25.3125 50.4844 27.6328 50.4844C27.6328 48.9902 27.6328 47.584 27.6328 46.2656C25.2598 46.2656 22.957 46.2656 20.6543 46.2656C20.6543 47.6016 20.6543 49.0254 20.6543 50.4844ZM12.2344 29.5488C11.3906 29.5488 10.6348 29.4961 9.89648 29.5664C8.82422 29.6719 8.06836 30.498 8.0332 31.5352C7.99805 32.5547 8.61328 33.4687 9.65039 33.6094C10.4941 33.7324 11.3555 33.627 12.2344 33.627C12.2344 32.2734 12.2344 30.9727 12.2344 29.5488ZM36.1055 29.5488C36.1055 30.9727 36.1055 32.3086 36.1055 33.6973C36.9316 33.6973 37.7227 33.7676 38.4961 33.6797C39.6035 33.5566 40.3242 32.6426 40.2891 31.5703C40.2715 30.498 39.4805 29.6543 38.3555 29.5664C37.6348 29.4961 36.9141 29.5488 36.1055 29.5488ZM31.5703 53.2617C29.7949 53.2617 28.2305 53.2617 26.5254 53.2617C27.123 54.2637 27.6504 55.1777 28.248 56.1621C29.3555 55.2129 30.3926 54.2988 31.5703 53.2617ZM16.7695 53.2793C17.9297 54.2988 18.9668 55.2129 20.0566 56.1621C20.6543 55.1426 21.1992 54.2285 21.8145 53.1914C20.1973 53.1914 18.7734 53.1914 17.332 53.1914C17.209 53.209 17.0859 53.2266 16.7695 53.2793ZM68.2207 51.1699C68.2383 50.3437 67.5879 49.6406 66.7617 49.623C65.9531 49.6055 65.25 50.3086 65.25 51.1172C65.25 51.9082 65.8828 52.5586 66.6914 52.5937C67.5352 52.6289 68.2031 52.0137 68.2207 51.1699Z" fill="white"/>
<path d="M24.1524 39.7614C22.9219 39.8141 21.7969 39.445 20.8477 38.6364C20.127 38.0388 20.004 37.2477 20.4962 36.6325C20.9883 36.0349 21.6915 35.9997 22.4473 36.527C23.5899 37.3356 24.7325 37.3356 25.8575 36.5446C26.6485 35.9997 27.3868 36.0349 27.8614 36.6677C28.336 37.3005 28.1778 38.0388 27.4219 38.654C26.4727 39.445 25.3829 39.8141 24.1524 39.7614Z" fill="white"/>
</svg>
